<svg width="194" height="217" viewBox="0 0 194 217" fill="none" xmlns="http://www.w3.org/2000/svg">
<path d="M31.3707 134.958C31.1479 141.163 31.0365 148.486 28.5852 154.076C27.8053 155.865 25.8554 158.436 26.0225 160.504C26.6911 170.79 27.0253 181.075 27.1924 191.416C27.1924 194.099 27.3596 197.062 29.0866 199.13C29.9223 200.192 31.0922 200.863 32.2621 201.59C33.5991 202.372 34.9362 203.211 36.2732 203.993C36.9975 204.441 37.7774 204.944 38.2231 205.726C38.6131 206.509 38.5016 207.627 37.7217 208.018C37.3874 208.186 37.0532 208.186 36.6632 208.186C32.8749 208.298 29.0866 208.298 25.2983 208.13C23.0699 208.018 20.8415 207.85 18.7802 207.012C18.3902 206.844 18.056 206.677 17.7774 206.341C17.5546 206.006 17.4989 205.559 17.4989 205.167C16.9417 197.397 15.939 189.907 14.1562 182.305C11.705 172.019 10.4794 161.231 12.3178 150.834C12.9863 147.144 14.4348 143.455 14.3791 139.71C14.2677 134.176 13.3763 128.81 14.0448 123.331C14.4905 119.53 14.7133 114.108 19.6158 115.394C22.5685 116.176 24.0727 118.524 25.744 120.928C27.5267 123.443 30.1451 125.456 31.0365 128.586C31.4821 130.263 31.4264 131.996 31.3707 133.785C31.3707 134.176 31.3707 134.567 31.3707 134.958Z" fill="#FAC4CA"/>
<path d="M17.4434 209.248C17.4991 209.248 17.6106 209.248 17.6663 209.248H17.7777C17.9448 209.248 18.1119 209.248 18.2791 209.248C18.4462 209.248 18.6691 209.248 18.8362 209.248C18.9476 209.248 19.059 209.248 19.1704 209.248C19.3376 209.248 19.5604 209.248 19.839 209.248C19.8947 209.248 19.9504 209.248 20.0618 209.248C20.2847 209.248 20.5075 209.248 20.6746 209.248H21.0089C21.2317 209.248 21.4546 209.248 21.6774 209.248H21.8445C22.0674 209.248 22.3459 209.248 22.5688 209.248H22.7359C23.0145 209.248 23.293 209.248 23.5716 209.248H23.683C23.8501 209.248 23.9615 209.248 24.1287 209.248H24.2958H24.4629H24.6301C25.2429 209.248 25.9114 209.248 26.4685 209.248C26.7471 209.248 27.0813 209.248 27.3042 209.248H27.4156C27.7498 209.248 28.0841 209.248 28.3626 209.248C28.5298 209.248 28.7526 209.248 28.9198 209.248H29.0312H29.0869C29.0869 209.248 29.1983 209.248 29.254 209.248C29.4769 209.248 29.7554 209.248 29.9782 209.248H30.1454C30.4796 209.248 30.8139 209.248 31.0924 209.248C31.4267 209.248 31.7053 209.248 31.9838 209.248H32.2067C32.4295 209.248 32.5966 209.248 32.8195 209.248C33.1537 209.248 33.4323 209.248 33.7665 209.248C33.9337 209.248 34.1008 209.248 34.2679 209.248C34.3794 209.248 34.4908 209.248 34.6022 209.248H34.7693C34.9365 209.248 35.0479 209.248 35.215 209.248C35.3264 209.248 35.3821 209.248 35.4936 209.248C35.5493 209.248 35.6607 209.248 35.7164 209.248C35.7721 209.248 35.8278 209.248 35.9393 209.248C36.1064 209.248 36.2178 209.248 36.3849 209.248C36.6635 209.248 36.942 209.248 37.332 209.248C37.7777 209.248 38.1677 209.248 38.6133 209.248C38.7805 209.248 38.9476 209.248 39.1704 209.248C39.2819 209.248 39.3933 209.248 39.449 209.248C39.6161 209.248 39.839 209.248 40.0061 209.248C40.1732 209.248 40.2847 209.248 40.4518 209.248H40.5075C40.6746 209.248 40.786 209.248 40.9532 209.248C41.1203 209.248 41.2317 209.248 41.3989 209.248H41.4546C41.6217 209.248 41.7331 209.248 41.9003 209.248C42.0117 209.248 42.1231 209.248 42.1788 209.248H42.2902C42.4574 209.248 42.6245 209.248 42.7916 209.248H42.903H42.9587C43.0145 209.248 43.0702 209.248 43.1816 209.248C43.293 209.248 43.4044 209.248 43.5158 209.248C43.6273 209.248 43.7944 209.248 43.9058 209.248C44.0172 209.248 44.1287 209.248 44.2401 209.248H44.3515C44.6301 209.248 44.9086 209.248 45.1872 209.248H45.2986H45.4657C45.4657 209.248 45.4657 209.248 45.5771 209.248C45.5771 209.248 45.5771 209.248 45.6328 209.248C45.6328 209.248 45.6886 209.248 45.7443 209.248C45.7443 209.248 45.8 209.248 45.8557 209.248C45.8557 209.248 45.8557 209.136 45.9671 209.136C45.9671 209.024 45.9671 208.968 45.9671 208.912C45.9671 208.912 45.9671 208.857 45.9671 208.801C45.9671 208.745 45.9114 208.689 45.8557 208.633C45.8 208.521 45.6886 208.409 45.6328 208.353C45.5214 208.242 45.4657 208.13 45.3543 208.074C45.2429 207.962 45.1872 207.906 45.0757 207.794C44.8529 207.627 44.6858 207.459 44.5186 207.291C44.4629 207.236 44.3515 207.124 44.2401 207.068C44.1287 207.012 44.073 206.956 43.9615 206.9C43.7387 206.732 43.5158 206.565 43.3487 206.453C43.1259 206.285 42.903 206.173 42.6802 206.006C42.2902 205.726 41.8445 205.447 41.4546 205.223H41.3431C41.176 205.055 41.0089 204.944 40.8975 204.832L40.7303 204.72C40.5632 204.608 40.3404 204.441 40.0618 204.273C39.9504 204.161 39.7833 204.105 39.5604 203.937L39.3933 203.826C39.2819 203.77 39.1704 203.714 39.059 203.602C39.0033 203.602 38.9476 203.546 38.8362 203.49L38.6691 203.379C38.4462 203.211 38.2234 203.099 38.0005 202.931C37.7777 202.82 37.6106 202.652 37.3877 202.54C37.2763 202.484 37.1649 202.428 37.1092 202.372C36.942 202.261 36.7749 202.149 36.5521 202.037C36.3292 201.925 36.1064 201.757 35.8278 201.646C35.6607 201.534 35.4936 201.478 35.3264 201.366L35.1036 201.254C34.825 201.087 34.6022 200.975 34.3794 200.919C34.2679 200.863 34.1565 200.807 34.0451 200.751C33.9337 200.695 33.7665 200.639 33.6551 200.584C33.6551 200.584 33.5437 200.584 33.488 200.528C33.3766 200.528 33.2652 200.472 33.1537 200.416C33.0423 200.416 32.9309 200.416 32.7638 200.36C32.5409 200.36 32.2624 200.304 31.9838 200.304C31.7053 200.304 31.4824 200.304 31.2039 200.304C30.981 200.304 30.7025 200.36 30.4239 200.472C30.3125 200.472 30.0897 200.584 29.9225 200.639C29.7554 200.751 29.5883 200.807 29.4211 200.919C29.3097 201.031 29.1983 201.143 29.1426 201.198C29.0869 201.366 29.0312 201.478 29.0312 201.59C29.0312 201.702 29.0312 201.869 29.0869 201.981C29.0869 202.093 29.1983 202.205 29.254 202.316C29.3654 202.484 29.5326 202.708 29.7554 202.875C29.8668 202.931 29.9225 202.987 30.034 203.099C30.1454 203.155 30.2568 203.267 30.3125 203.323C30.3125 203.323 30.4239 203.378 30.4796 203.434C30.5911 203.49 30.7025 203.546 30.7582 203.658C30.8696 203.77 31.0367 203.882 31.1482 203.993C31.1482 203.993 31.2039 204.105 31.2596 204.161C31.2596 204.161 31.3153 204.273 31.371 204.329C31.371 204.329 31.371 204.441 31.371 204.496C31.371 204.496 31.371 204.552 31.371 204.608C31.371 204.608 31.371 204.664 31.371 204.72C31.371 204.72 31.371 204.776 31.3153 204.832C31.3153 204.832 31.2596 204.944 31.2039 204.944C31.1482 204.944 31.0925 205.055 31.0367 205.055C30.9253 205.055 30.8139 205.111 30.7025 205.167C30.5353 205.167 30.3682 205.167 30.2568 205.223C30.0897 205.223 29.9225 205.223 29.7554 205.223C29.4769 205.223 29.1983 205.223 28.9198 205.167C28.6969 205.167 28.4741 205.167 28.1955 205.111C28.1955 205.111 28.1398 205.111 28.0841 205.111C27.9727 205.111 27.917 205.111 27.8055 205.111H27.6941C27.6384 205.111 27.527 205.111 27.4156 205.111C27.3042 205.111 27.3599 205.111 27.3042 205.111C27.1927 205.111 27.137 205.111 27.0256 205.111H26.9142C26.8028 205.111 26.6356 205.111 26.5242 205.111C26.5242 205.111 26.4128 205.111 26.3571 205.111C26.3014 205.111 26.1899 205.111 26.1342 205.111C25.9671 205.111 25.8 205.111 25.6328 205.111H25.5214H25.41H25.3543H25.2986H25.2429H25.0757C24.9643 205.111 24.7972 205.111 24.6858 205.111C24.5186 205.111 24.4072 205.111 24.2401 205.111C24.1287 205.111 24.0172 205.111 23.9615 205.111C23.7944 205.111 23.5716 205.111 23.4044 205.111H23.1816H23.1259C22.9588 205.111 22.7359 205.111 22.5131 205.111C22.5131 205.111 22.4574 205.111 22.4016 205.111H22.2902C22.2345 205.111 22.1788 205.111 22.0674 205.111H22.0117H21.8445C21.7331 205.111 21.6774 205.111 21.566 205.111C21.4546 205.111 21.3431 205.111 21.2317 205.111H21.176C21.176 205.111 21.0646 205.111 21.0089 205.111C20.9532 205.111 20.8418 205.111 20.786 205.111C20.6746 205.111 20.5632 205.111 20.3961 205.111C20.2289 205.111 20.1175 205.111 19.9504 205.111C19.7833 205.111 19.6718 205.111 19.5047 205.111C19.3933 205.111 19.2819 205.111 19.1704 205.111C19.059 205.111 18.9476 205.111 18.8362 205.111H18.7805C18.7248 205.111 18.6133 205.111 18.5576 205.111H18.3905C18.2234 205.111 18.0005 205.111 17.8334 205.111H17.6106C17.6106 205.111 17.5548 205.111 17.4991 205.111C17.4434 205.111 17.3877 205.111 17.332 205.167C17.332 205.167 17.2206 205.167 17.2206 205.279V205.391C17.2206 205.503 17.2206 205.559 17.1649 205.67C17.1649 205.726 17.1649 205.782 17.1649 205.894C17.1649 205.95 17.1649 206.062 17.1092 206.118C17.1092 206.229 17.0535 206.397 16.9977 206.509C16.9977 206.621 16.9977 206.732 16.9977 206.844C16.9977 207.068 16.8863 207.291 16.8863 207.515C16.8863 207.627 16.8863 207.739 16.8863 207.85C16.8863 207.962 16.8863 208.074 16.8863 208.186C16.8863 208.298 16.8863 208.409 16.8863 208.577C16.8863 208.689 16.8863 208.801 16.8863 208.968C16.8863 209.192 16.8306 209.36 16.7749 209.583C16.7749 209.583 16.7749 209.583 16.8306 209.639V209.695H16.8863C16.9977 209.695 17.1092 209.695 17.2206 209.695H17.332H17.4434H17.4991H17.5549C17.5549 209.695 17.6106 209.695 17.6663 209.695C17.7777 209.695 17.8334 209.695 17.9448 209.695C17.9448 209.695 18.0005 209.695 18.0562 209.695L17.4434 209.248Z" fill="#ED9E1F"/>
<path d="M17.5547 212.266C17.8332 212.266 18.0561 212.266 18.3346 212.266C18.6132 212.266 18.9474 212.266 19.2817 212.266C19.4488 212.266 19.6717 212.266 19.8388 212.266H19.9502H20.0616C20.3959 212.266 20.6745 212.266 20.953 212.266C21.1201 212.266 21.2873 212.266 21.5101 212.266C21.6215 212.266 21.733 212.266 21.7887 212.266H21.9558C22.1229 212.266 22.3458 212.266 22.5129 212.266H22.6243C22.9029 212.266 23.1814 212.266 23.46 212.266H23.6271C23.8499 212.266 24.0728 212.266 24.3513 212.266C24.5185 212.266 24.6299 212.266 24.797 212.266C24.9642 212.266 25.0756 212.266 25.2427 212.266H25.3541C25.8555 212.266 26.4126 212.266 26.9697 212.266C26.9697 212.266 27.0811 212.266 27.1369 212.266C27.3597 212.266 27.5825 212.266 27.8054 212.266H27.9168C28.0282 212.266 28.1396 212.266 28.2511 212.266C28.3625 212.266 28.4739 212.266 28.5296 212.266C28.5296 212.266 28.641 212.266 28.6967 212.266H28.9196C29.0867 212.266 29.1981 212.266 29.3653 212.266C29.4767 212.266 29.5324 212.266 29.6438 212.266C29.7552 212.266 29.8667 212.266 29.9781 212.266C30.1452 212.266 30.2566 212.266 30.4238 212.266H30.4795C30.6466 212.266 30.8694 212.266 31.0923 212.266C31.2594 212.266 31.3708 212.266 31.4823 212.266C31.4823 212.266 31.5937 212.266 31.6494 212.266H31.8165H31.9279C32.1508 212.266 32.4293 212.266 32.7079 212.266H32.9864C33.2093 212.266 33.3764 212.266 33.5992 212.266C33.5992 212.266 33.655 212.266 33.7107 212.266C33.8778 212.266 34.1006 212.266 34.2678 212.266H34.4349C34.5463 212.266 34.602 212.266 34.7135 212.266C34.8806 212.266 35.0477 212.266 35.2149 212.266H35.3263C35.5491 212.266 35.772 212.266 35.9948 212.266C36.1619 212.266 36.2733 212.266 36.4405 212.266C36.6076 212.266 36.719 212.266 36.8862 212.266C37.109 212.266 37.3318 212.266 37.5547 212.266H37.7218C38.1675 212.266 38.6689 212.266 39.1146 212.266H39.4488C39.616 212.266 39.7831 212.266 39.9502 212.266C40.0616 212.266 40.2288 212.266 40.3402 212.266C40.6187 212.266 40.8973 212.266 41.1201 212.266C41.343 212.266 41.5658 212.266 41.733 212.266H41.8444H42.0115C42.1786 212.266 42.3458 212.266 42.5129 212.266C42.6243 212.266 42.68 212.266 42.7914 212.266C42.8472 212.266 42.9029 212.266 42.9586 212.266C43.0143 212.266 43.1257 212.266 43.1814 212.266C43.1814 212.266 43.2371 212.266 43.2928 212.266H43.46C43.6828 212.266 43.9057 212.266 44.1285 212.155C44.4071 212.155 44.6299 212.043 44.9084 211.931C45.1313 211.819 45.2984 211.763 45.5213 211.652C45.6327 211.652 45.7441 211.54 45.7998 211.484C45.7998 211.484 45.8555 211.484 45.9112 211.428C45.9112 211.428 46.0226 211.428 46.0226 211.372C46.0226 211.26 46.1341 211.148 46.1341 211.093C46.1341 210.981 46.1898 210.869 46.2455 210.757C46.2455 210.645 46.3012 210.534 46.3012 210.422C46.3012 210.31 46.3012 210.198 46.3012 210.086C46.3012 209.863 46.3012 209.639 46.3569 209.416C46.3569 209.192 46.3569 209.024 46.3569 208.801C46.3569 208.689 46.3569 208.633 46.3569 208.521C46.3569 208.521 46.3569 208.465 46.3569 208.409C46.3569 208.354 46.3012 208.298 46.2455 208.298C46.1898 208.298 46.1341 208.298 46.1341 208.409C46.1341 208.409 46.0784 208.409 46.0226 208.409C46.0226 208.409 45.9669 208.409 45.9112 208.409C45.9112 208.409 45.9112 208.409 45.8555 208.409C45.8555 208.409 45.7998 208.409 45.7441 208.409H45.577H45.4655C45.187 208.409 44.9084 208.409 44.6299 208.409H44.5185C44.4071 208.409 44.2956 208.409 44.1842 208.409C44.0171 208.409 43.9057 208.409 43.7942 208.409C43.6828 208.409 43.5714 208.409 43.46 208.409C43.4043 208.409 43.3486 208.409 43.2371 208.409H43.1814H43.07C42.9029 208.409 42.7357 208.409 42.5686 208.409H42.4572C42.3458 208.409 42.2344 208.409 42.1786 208.409C42.0115 208.409 41.9001 208.409 41.733 208.409H41.6772C41.5101 208.409 41.3987 208.409 41.2316 208.409C41.0644 208.409 40.953 208.409 40.7859 208.409H40.7302C40.563 208.409 40.4516 208.409 40.2845 208.409C40.0616 208.409 39.8945 208.409 39.7274 208.409C39.616 208.409 39.5045 208.409 39.4488 208.409C39.2817 208.409 39.1146 208.409 38.8917 208.409C38.5018 208.409 38.0561 208.409 37.6104 208.409C37.2761 208.409 36.9419 208.409 36.6633 208.409C36.4962 208.409 36.3848 208.409 36.2176 208.409C36.1619 208.409 36.1062 208.409 35.9948 208.409C35.9391 208.409 35.8277 208.409 35.772 208.409C35.6605 208.409 35.6048 208.409 35.4934 208.409C35.3263 208.409 35.2148 208.409 35.0477 208.409H34.8806C34.7692 208.409 34.6578 208.409 34.5463 208.409C34.3792 208.409 34.2121 208.409 34.0449 208.409C33.7107 208.409 33.3764 208.409 33.0979 208.409C32.875 208.409 32.6522 208.409 32.485 208.409H32.2622C31.9837 208.409 31.7051 208.409 31.3708 208.409C31.0923 208.409 30.758 208.409 30.4238 208.409H30.2566C30.0338 208.409 29.811 208.409 29.5324 208.409C29.5324 208.409 29.421 208.409 29.3653 208.409H29.3096H29.1981C29.031 208.409 28.8082 208.409 28.641 208.409C28.3625 208.409 28.0282 208.409 27.694 208.409H27.5825C27.3597 208.409 27.0254 208.409 26.7469 208.409C26.1898 208.409 25.5213 208.409 24.9084 208.409H24.7413H24.5742H24.407C24.2399 208.409 24.1285 208.409 23.9614 208.409H23.8499C23.5714 208.409 23.2928 208.409 23.0143 208.409H22.8472C22.6243 208.409 22.3458 208.409 22.1229 208.409H21.9558C21.733 208.409 21.5101 208.409 21.2873 208.409H20.953C20.7302 208.409 20.5073 208.409 20.3402 208.409C20.2845 208.409 20.1731 208.409 20.1174 208.409C19.8388 208.409 19.616 208.409 19.4488 208.409C19.3374 208.409 19.226 208.409 19.1146 208.409C18.9474 208.409 18.7246 208.409 18.5575 208.409C18.3903 208.409 18.2232 208.409 18.0561 208.409H17.9447C17.8889 208.409 17.7775 208.409 17.7218 208.409C17.7218 208.409 17.6661 208.409 17.6104 208.409C17.499 208.409 17.4433 208.409 17.3318 208.409C17.3318 208.409 17.2761 208.409 17.2204 208.409H17.1647H17.109H16.9976H16.8862C16.7747 208.409 16.6633 208.409 16.5519 208.409H16.4962C16.4962 208.409 16.4962 208.409 16.4962 208.353C16.4962 208.353 16.4962 208.354 16.4405 208.298C16.4405 208.298 16.4405 208.409 16.4405 208.465C16.4405 208.465 16.4405 208.465 16.4405 208.409C16.4405 208.409 16.4405 208.521 16.4405 208.577C16.4405 208.745 16.4405 208.857 16.3848 209.024C16.3848 209.192 16.3848 209.36 16.3848 209.471C16.3848 209.639 16.3848 209.807 16.3848 209.975C16.3848 210.142 16.3848 210.31 16.3848 210.478C16.3848 210.589 16.3848 210.701 16.3848 210.757C16.3848 210.869 16.4405 211.037 16.4962 211.148C16.4962 211.148 16.4962 211.148 16.4962 211.093C16.4962 211.093 16.4962 211.093 16.4962 211.148C16.4962 211.148 16.4962 211.204 16.4962 211.26C16.4962 211.316 16.5519 211.372 16.6076 211.428C16.6076 211.428 16.6633 211.54 16.719 211.596C16.719 211.596 16.719 211.596 16.7747 211.596C16.7747 211.596 16.8862 211.652 16.9419 211.707C16.9976 211.707 17.0533 211.707 17.109 211.763H17.2204C17.2204 211.763 17.2761 211.763 17.3318 211.763C17.499 211.763 17.6661 211.763 17.8889 211.763L17.5547 212.266Z" fill="#F6C08F"/>
<path d="M44.1841 210.757C44.017 210.757 43.8499 210.757 43.6827 210.757C43.4042 210.757 43.1256 210.757 42.8471 210.757C42.5685 210.757 42.3457 210.757 42.1229 210.757C41.8443 210.757 41.5657 210.757 41.2872 210.757C40.9529 210.757 40.6187 210.757 40.2844 210.757C39.9501 210.757 39.6159 210.757 39.2816 210.757C39.0031 210.757 38.7245 210.757 38.446 210.757C38.6688 210.757 38.8917 210.757 39.1702 210.757C39.8387 210.757 40.4515 210.813 41.1201 210.813C41.7329 210.813 42.4014 210.813 43.0142 210.813C43.3485 210.813 43.627 210.813 43.9613 210.813C44.2398 210.813 44.5741 210.813 44.8527 210.813C44.7412 210.813 44.6298 210.813 44.5184 210.813C44.407 210.813 44.3513 210.813 44.2398 210.813L44.1841 210.757ZM25.8554 210.422C25.744 210.422 25.5769 210.422 25.4655 210.422C25.2983 210.422 25.1312 210.422 24.9641 210.422C24.7969 210.422 24.6298 210.422 24.4627 210.422C24.4627 210.422 24.3513 210.422 24.2956 210.422C24.2956 210.422 24.3513 210.422 24.407 210.422C24.7412 210.422 25.0755 210.422 25.4098 210.422C25.6883 210.422 26.0226 210.422 26.3011 210.422C26.134 210.422 26.0226 210.422 25.8554 210.422ZM17.4432 210.478C17.1089 210.478 16.8304 210.478 16.4961 210.422C16.329 210.422 16.1618 210.422 16.0504 210.422C16.0504 210.422 15.939 210.422 15.8833 210.422C15.8833 210.31 15.8833 210.142 15.8833 210.03C15.8833 210.03 15.8833 210.03 15.939 210.03C16.0504 210.03 16.1061 210.03 16.2176 210.03C16.3847 210.03 16.5518 210.03 16.7747 210.086C16.9418 210.086 17.1646 210.086 17.3318 210.142C17.666 210.142 18.0003 210.142 18.3346 210.142C18.446 210.142 18.5574 210.142 18.6131 210.142C18.8359 210.142 19.0588 210.142 19.2816 210.142C19.5045 210.142 19.783 210.142 20.0059 210.142C20.6744 210.142 21.2872 210.142 21.9557 210.142C22.29 210.142 22.5685 210.142 22.9028 210.142C23.2371 210.142 23.5713 210.142 23.9056 210.142C24.2398 210.142 24.5741 210.142 24.9084 210.142C25.2426 210.142 25.5769 210.142 25.9112 210.198C26.1897 210.198 26.524 210.254 26.8025 210.31C26.9696 210.31 27.1368 210.31 27.3596 210.31C27.3596 210.31 27.3596 210.31 27.4153 210.31C27.5268 210.31 27.6939 210.31 27.8053 210.31C28.1953 210.31 28.5295 210.31 28.9195 210.31C29.2538 210.31 29.6437 210.31 29.978 210.31C30.3123 210.31 30.6465 210.31 30.9808 210.31C31.3151 210.31 31.5936 210.31 31.9279 210.31C32.2621 210.31 32.5964 210.31 32.9307 210.31C33.2649 210.31 33.5992 210.31 33.8777 210.31C34.5462 210.31 35.2148 210.31 35.8833 210.366C36.5518 210.366 37.2204 210.366 37.8889 210.366C38.2231 210.366 38.5574 210.366 38.8917 210.366C39.2259 210.366 39.5602 210.366 39.8387 210.366C40.5073 210.366 41.1758 210.366 41.8443 210.366C42.1786 210.366 42.5128 210.366 42.7914 210.366C43.1256 210.366 43.4042 210.366 43.7385 210.366C44.0727 210.366 44.407 210.366 44.7412 210.366C45.0198 210.366 45.3541 210.366 45.6326 210.422C45.6883 210.422 45.7997 210.422 45.8554 210.422C45.9112 210.422 46.0226 210.422 46.0783 210.422C46.1897 210.422 46.2454 210.422 46.3568 210.478C46.3568 210.478 46.3568 210.478 46.4125 210.478C46.4125 210.478 46.4125 210.478 46.4125 210.533C46.4125 210.533 46.4125 210.645 46.3568 210.701C46.3568 210.701 46.2454 210.701 46.1897 210.701C46.1897 210.701 46.0783 210.701 46.0226 210.701C45.8554 210.701 45.744 210.701 45.5769 210.701C45.4098 210.701 45.2426 210.701 45.1312 210.701C44.9641 210.701 44.8527 210.701 44.6855 210.701C44.407 210.701 44.0727 210.701 43.7942 210.701C43.1813 210.701 42.5685 210.701 41.9557 210.701C41.3429 210.701 40.6744 210.701 40.0616 210.701C39.393 210.701 38.7802 210.701 38.1117 210.589C37.4432 210.589 36.8304 210.533 36.1618 210.533C35.4933 210.533 34.8248 210.533 34.212 210.533C33.5435 210.533 32.8749 210.533 32.2064 210.533C31.5379 210.533 30.8694 210.533 30.2566 210.533C29.9223 210.533 29.588 210.533 29.2538 210.533C28.9195 210.533 28.641 210.533 28.3067 210.533C27.9724 210.533 27.6382 210.533 27.3039 210.533C26.9697 210.533 26.6354 210.533 26.3011 210.533C25.9669 210.533 25.6883 210.533 25.3541 210.533C25.0198 210.533 24.6855 210.533 24.407 210.533C24.0727 210.533 23.7385 210.533 23.4042 210.533C23.0699 210.533 22.7357 210.533 22.4014 210.533C21.8443 210.533 21.2872 210.478 20.7858 210.422C20.6187 210.422 20.4515 210.422 20.2844 210.422C19.9502 210.422 19.6159 210.422 19.2816 210.422C19.1145 210.422 18.9474 210.422 18.7802 210.422C18.6688 210.422 18.6131 210.422 18.5017 210.422C18.5017 210.422 18.5017 210.422 18.446 210.422C18.446 210.422 18.3345 210.422 18.2788 210.422C17.9446 210.422 17.666 210.422 17.3318 210.422L17.4432 210.478Z" fill="#ED9E1F"/>
<path d="M61.5654 137.194C62.8467 139.43 63.4038 142.058 63.181 144.629C62.791 148.598 59.6712 150.219 58.7242 153.629C55.9943 163.579 52.9303 173.417 49.7548 183.255C48.9191 185.826 48.0835 188.621 49.0306 191.193C49.4762 192.478 50.3676 193.54 51.259 194.547C52.2618 195.776 53.2645 196.95 54.2673 198.18C54.8244 198.851 55.3815 199.578 55.5487 200.416C55.7158 201.255 55.2144 202.317 54.323 202.428C53.9888 202.428 53.5988 202.372 53.2645 202.261C49.6434 201.143 46.0779 199.857 42.5682 198.46C40.5069 197.621 38.4456 196.727 36.7743 195.273C36.4957 194.994 36.1615 194.714 36.0501 194.323C35.9386 193.932 36.0501 193.54 36.1615 193.149C38.167 185.603 39.6712 178.224 40.4512 170.454C41.2868 162.293 42.8467 154.076 45.9665 146.474C47.6378 142.393 50.6462 131.325 56.7186 133.114C57.7214 133.393 58.557 133.952 59.337 134.623C60.2283 135.406 60.9526 136.3 61.5654 137.306V137.194Z" fill="#FAC4CA"/>
<path d="M34.7688 196.783C34.8245 196.783 34.9359 196.783 34.9916 196.839H35.103C35.2702 196.95 35.4373 197.006 35.5487 197.062C35.7158 197.118 35.9387 197.174 36.1058 197.23C36.2172 197.23 36.3286 197.286 36.4401 197.342C36.6072 197.398 36.83 197.453 37.0529 197.565C37.1086 197.565 37.1643 197.565 37.2757 197.621C37.4986 197.677 37.6657 197.789 37.8885 197.845L38.1671 197.956C38.3899 198.068 38.6128 198.124 38.8356 198.18L39.0027 198.236C39.2256 198.292 39.4484 198.404 39.6713 198.46H39.8384C40.117 198.627 40.3955 198.739 40.6183 198.795H40.7298C40.8412 198.907 41.0083 198.907 41.1197 198.963H41.2869C41.2869 199.019 41.454 199.074 41.454 199.074H41.6211C42.2339 199.354 42.8468 199.578 43.3481 199.745C43.6267 199.857 43.9053 199.969 44.1281 200.025H44.2395C44.5738 200.192 44.8523 200.248 45.1309 200.36C45.298 200.416 45.4651 200.472 45.688 200.528H45.7994L45.8551 200.584C45.8551 200.584 45.9665 200.584 46.0222 200.584C46.2451 200.64 46.4679 200.751 46.6908 200.807H46.8579C47.1922 200.975 47.4707 201.087 47.7493 201.143C48.0835 201.255 48.3064 201.366 48.5849 201.422H48.8078C48.8078 201.478 48.8078 201.534 48.8078 201.534C48.9749 201.59 49.1977 201.702 49.4206 201.758C49.6991 201.869 50.0334 201.981 50.3119 202.093C50.4791 202.149 50.6462 202.205 50.7576 202.261C50.869 202.261 50.9805 202.317 51.0362 202.372H51.2033C51.3147 202.484 51.4819 202.54 51.5933 202.596C51.649 202.596 51.7604 202.652 51.8161 202.708C51.8718 202.708 51.9275 202.764 52.039 202.82C52.0947 202.82 52.1504 202.82 52.2061 202.876C52.3732 202.876 52.4846 202.987 52.6518 203.043C52.9303 203.155 53.2089 203.211 53.5431 203.379C53.9331 203.546 54.3231 203.658 54.7688 203.826C54.9359 203.882 55.103 203.938 55.2701 203.994C55.3816 203.994 55.4373 204.049 55.5487 204.105C55.7158 204.161 55.883 204.217 56.1058 204.273C56.2172 204.273 56.3844 204.385 56.4958 204.385H56.5515C56.6629 204.441 56.83 204.497 56.9415 204.553C57.1086 204.553 57.22 204.664 57.3871 204.664H57.4429C57.5543 204.72 57.7214 204.776 57.8328 204.832C57.9442 204.832 58 204.888 58.1114 204.944H58.2228C58.3899 204.944 58.5013 205.056 58.6685 205.112H58.7799L58.8356 205.167C58.8913 205.167 58.947 205.167 59.0027 205.223C59.1142 205.223 59.2256 205.279 59.337 205.335C59.4484 205.335 59.5598 205.391 59.727 205.447C59.8384 205.447 59.9498 205.503 60.0612 205.559H60.1727C60.4512 205.671 60.6741 205.782 60.9526 205.894H61.064L61.2312 206.006C61.2312 206.006 61.2312 206.062 61.2869 206.118C61.2869 206.118 61.2869 206.118 61.3426 206.118C61.3426 206.118 61.3426 206.118 61.3983 206.118C61.3983 206.118 61.454 206.118 61.5097 206.118C61.5097 206.118 61.5654 206.118 61.6211 206.118C61.6211 206.118 61.6768 206.062 61.7325 206.062C61.7325 205.95 61.7325 205.894 61.7325 205.838C61.7325 205.838 61.7325 205.782 61.7325 205.726C61.7325 205.671 61.7325 205.559 61.7325 205.503C61.7325 205.391 61.6768 205.279 61.6211 205.167C61.6211 205.056 61.5097 204.944 61.454 204.832C61.3983 204.72 61.3426 204.608 61.2869 204.497C61.1754 204.273 61.0083 204.049 60.8969 203.826C60.8969 203.714 60.7855 203.602 60.7298 203.49C60.6741 203.379 60.6183 203.323 60.5626 203.211C60.3955 202.987 60.2841 202.764 60.1169 202.54C59.9498 202.317 59.7827 202.093 59.6713 201.925C59.3927 201.534 59.0585 201.143 58.7799 200.751L58.6685 200.64C58.5571 200.472 58.4456 200.36 58.3342 200.192L58.1671 200.025C58 199.857 57.8885 199.633 57.6657 199.41C57.5543 199.298 57.4429 199.13 57.3314 198.963L57.22 198.795C57.1643 198.683 57.0529 198.571 56.9972 198.515C56.9972 198.515 56.8858 198.404 56.83 198.348L56.7186 198.18C56.5515 197.956 56.3844 197.733 56.2172 197.509C56.0501 197.342 55.9387 197.118 55.7716 196.95C55.7158 196.839 55.6044 196.783 55.5487 196.671C55.4373 196.503 55.2702 196.335 55.1587 196.168C54.9916 195.944 54.8245 195.776 54.6016 195.553C54.4902 195.441 54.3788 195.273 54.2117 195.162L54.0445 194.938C53.8217 194.714 53.6546 194.547 53.4874 194.379C53.376 194.267 53.2646 194.211 53.2089 194.099C53.0975 193.988 52.986 193.876 52.8746 193.82C52.8746 193.82 52.7632 193.764 52.7632 193.708C52.6518 193.652 52.5961 193.596 52.4846 193.485C52.3732 193.429 52.2618 193.373 52.1504 193.317C51.9275 193.205 51.7047 193.093 51.4261 192.982C51.2033 192.87 50.9248 192.814 50.7019 192.758C50.4791 192.758 50.2005 192.646 49.8663 192.646C49.6991 192.646 49.532 192.646 49.3649 192.646C49.142 192.646 48.9749 192.646 48.8078 192.758C48.6406 192.758 48.5292 192.87 48.4735 192.982C48.3621 193.093 48.3064 193.205 48.2507 193.317C48.2507 193.429 48.1949 193.596 48.1949 193.708C48.1949 193.82 48.1949 193.988 48.1949 194.099C48.1949 194.323 48.3064 194.547 48.4735 194.77C48.5292 194.882 48.5849 194.938 48.6406 195.05C48.6963 195.162 48.8077 195.273 48.8635 195.329C48.8635 195.329 48.9192 195.441 48.9749 195.497C49.0306 195.609 49.142 195.665 49.1977 195.776C49.3091 195.888 49.3649 196.056 49.4763 196.224C49.4763 196.224 49.4763 196.335 49.532 196.391C49.532 196.447 49.532 196.503 49.532 196.559C49.532 196.559 49.532 196.671 49.532 196.727C49.532 196.727 49.532 196.783 49.532 196.839C49.532 196.839 49.532 196.894 49.4763 196.95C49.4763 196.95 49.4206 197.006 49.3649 197.062C49.3649 197.062 49.2534 197.118 49.1977 197.174C49.142 197.174 49.0306 197.174 48.9749 197.174C48.8635 197.174 48.752 197.174 48.6406 197.174C48.4735 197.174 48.3064 197.118 48.1949 197.062C48.0278 197.062 47.9164 196.95 47.7493 196.894C47.4707 196.783 47.2479 196.671 46.9693 196.559C46.7465 196.447 46.5236 196.335 46.3008 196.28C46.3008 196.28 46.2451 196.28 46.1894 196.28C46.078 196.28 46.0222 196.224 45.9108 196.168H45.7994C45.7437 196.112 45.6323 196.056 45.5209 196C45.5209 196 45.4651 196 45.4094 196C45.3537 196 45.2423 196 45.1309 195.944H45.0195C44.908 195.944 44.7409 195.832 44.6295 195.832C44.6295 195.832 44.5181 195.832 44.4623 195.832C44.4066 195.832 44.3509 195.832 44.2395 195.776C44.0724 195.721 43.9052 195.665 43.7938 195.609H43.6824L43.571 195.497H43.5153H43.4596H43.4039L43.2367 195.385C43.1253 195.385 43.0139 195.273 42.9025 195.217C42.791 195.162 42.6239 195.106 42.5125 195.05C42.4011 195.05 42.3454 194.994 42.2339 194.938C42.0668 194.882 41.8997 194.77 41.7325 194.714H41.5097C41.5097 194.658 41.454 194.603 41.454 194.603C41.2869 194.547 41.064 194.435 40.8969 194.379C40.8969 194.379 40.8412 194.379 40.7855 194.379H40.6741C40.6183 194.323 40.5626 194.323 40.5069 194.267H40.4512L40.2841 194.155C40.2284 194.155 40.1169 194.099 40.0612 194.044C39.9498 194.044 39.8384 193.988 39.7827 193.932H39.727C39.727 193.932 39.6156 193.876 39.5598 193.82C39.5041 193.82 39.3927 193.82 39.337 193.764C39.2256 193.764 39.1142 193.652 39.0027 193.652C38.8913 193.652 38.7242 193.54 38.6128 193.485C38.4456 193.485 38.3342 193.373 38.1671 193.317C38.0557 193.317 37.9443 193.261 37.8885 193.205C37.7771 193.205 37.6657 193.149 37.61 193.093H37.5543C37.4986 193.093 37.3871 192.982 37.3314 192.982H37.1643C36.9972 192.87 36.83 192.758 36.6072 192.702H36.4401C36.4401 192.59 36.4401 192.59 36.3844 192.59C36.3286 192.59 36.2729 192.59 36.2172 192.59C36.2172 192.59 36.1058 192.59 36.0501 192.59C36.0501 192.59 36.0501 192.646 35.9944 192.702C35.9387 192.758 35.883 192.87 35.8273 192.926C35.8273 192.982 35.7715 193.037 35.7158 193.093C35.7158 193.149 35.6044 193.205 35.6044 193.261C35.5487 193.373 35.4373 193.485 35.3816 193.596C35.3816 193.708 35.2702 193.764 35.2144 193.876C35.103 194.099 34.9916 194.267 34.8802 194.491C34.8802 194.603 34.7688 194.714 34.713 194.77C34.713 194.882 34.6016 194.994 34.5459 195.05C34.5459 195.162 34.4345 195.273 34.3788 195.385C34.3788 195.497 34.2674 195.609 34.2117 195.721C34.1002 195.888 34.0445 196.112 33.9331 196.28C33.9331 196.28 33.9331 196.28 33.9331 196.335C33.9331 196.335 33.9331 196.335 33.9331 196.391C33.9331 196.391 33.9331 196.391 33.9888 196.391C34.1002 196.391 34.2117 196.503 34.3231 196.559H34.4345L34.5459 196.671H34.6016C34.6016 196.671 34.6573 196.671 34.713 196.671C34.8245 196.671 34.8802 196.727 34.9916 196.783C34.9916 196.783 35.0473 196.783 35.103 196.783H34.7688Z" fill="#ED9E1F"/>
<path d="M33.8218 199.689C34.0447 199.801 34.3232 199.857 34.5461 199.969C34.8246 200.081 35.1032 200.192 35.4374 200.304C35.6045 200.36 35.7717 200.416 35.9945 200.472H36.0502H36.1059C36.3845 200.584 36.663 200.64 36.9416 200.751C37.1087 200.807 37.2759 200.863 37.443 200.975C37.5544 200.975 37.6101 201.031 37.7215 201.087H37.8887C38.0558 201.255 38.2229 201.31 38.4458 201.366H38.5572C38.8357 201.534 39.0586 201.59 39.3371 201.702H39.4486C39.6714 201.813 39.8942 201.925 40.1171 201.981C40.2285 201.981 40.3956 202.093 40.5071 202.149C40.6185 202.149 40.7856 202.261 40.897 202.317H41.0084C41.5098 202.54 42.0112 202.708 42.5126 202.876C42.5126 202.876 42.624 202.876 42.6798 202.876C42.9026 202.931 43.0697 203.043 43.2926 203.155H43.3483C43.4597 203.211 43.5711 203.267 43.6268 203.323C43.7382 203.323 43.794 203.379 43.9054 203.435H44.0168H44.1839C44.2954 203.546 44.4625 203.602 44.5739 203.658C44.6296 203.658 44.741 203.714 44.7967 203.77C44.9082 203.77 45.0196 203.826 45.0753 203.882C45.1867 203.938 45.3538 203.994 45.4653 204.049H45.521C45.6881 204.161 45.8552 204.217 46.0781 204.273C46.1895 204.273 46.3009 204.329 46.4123 204.385C46.4123 204.385 46.5238 204.385 46.5795 204.441H46.7466C46.7466 204.497 46.858 204.553 46.858 204.553C47.0809 204.664 47.3037 204.72 47.638 204.832L47.8608 204.944C48.0279 205 48.2508 205.056 48.4179 205.167C48.4179 205.167 48.4736 205.167 48.5293 205.167C48.6965 205.223 48.8636 205.335 49.0864 205.391H49.2536C49.3093 205.503 49.4207 205.503 49.4764 205.559C49.6435 205.615 49.8107 205.671 49.9778 205.726H50.0892C50.3121 205.838 50.5349 205.95 50.7578 206.006C50.8692 206.062 51.0363 206.118 51.1477 206.174C51.2591 206.174 51.4263 206.285 51.5377 206.341C51.7605 206.453 51.9834 206.509 52.2062 206.565H52.3734C52.819 206.788 53.2647 206.956 53.6547 207.124L53.9332 207.236C54.1004 207.292 54.2118 207.347 54.3789 207.403C54.4903 207.403 54.6018 207.515 54.7689 207.515C54.9917 207.627 55.2703 207.683 55.5488 207.795C55.7717 207.851 55.9388 207.962 56.1059 208.018H56.2174L56.3845 208.13C56.5516 208.186 56.7188 208.242 56.8859 208.354C56.9973 208.41 57.053 208.465 57.1644 208.465C57.1644 208.465 57.2759 208.521 57.3316 208.577C57.3873 208.577 57.443 208.689 57.5544 208.689C57.5544 208.689 57.6101 208.689 57.6658 208.689H57.833C58.0558 208.801 58.2786 208.857 58.4458 208.857C58.7243 208.857 59.0029 208.913 59.2257 208.857C59.4486 208.857 59.6714 208.857 59.8942 208.801C60.0057 208.801 60.1171 208.801 60.2285 208.745H60.3399C60.3399 208.745 60.4513 208.745 60.5071 208.745C60.6185 208.689 60.6742 208.577 60.7299 208.521C60.7856 208.465 60.8413 208.354 60.9527 208.242C61.0084 208.13 61.0641 208.074 61.1199 207.962C61.1199 207.851 61.2313 207.795 61.287 207.683C61.3984 207.515 61.4541 207.292 61.5656 207.068C61.6213 206.9 61.677 206.677 61.7327 206.453C61.7327 206.341 61.7327 206.285 61.7327 206.174C61.7327 206.174 61.7327 206.118 61.7327 206.062C61.7327 206.062 61.7327 205.95 61.677 205.95H61.5656H61.4541C61.4541 205.95 61.3984 205.95 61.3427 205.95C61.3427 205.95 61.3427 205.95 61.287 205.95C61.287 205.95 61.287 205.95 61.2313 205.95C61.2313 205.95 61.1756 205.95 61.1756 205.894L61.0084 205.838H60.897C60.6185 205.726 60.3399 205.615 60.1171 205.559H60.0057C59.8942 205.503 59.7828 205.447 59.6714 205.391C59.56 205.391 59.3928 205.279 59.2814 205.279C59.17 205.279 59.0586 205.223 58.9472 205.167C58.8915 205.167 58.8357 205.167 58.78 205.112H58.7243L58.6129 205.056C58.4458 205.056 58.2786 204.944 58.1672 204.888H58.0558C57.9444 204.888 57.8887 204.888 57.7772 204.776C57.6658 204.776 57.4987 204.664 57.3873 204.664H57.3316C57.1644 204.608 57.053 204.553 56.8859 204.497C56.7745 204.497 56.6073 204.385 56.4959 204.385H56.4402C56.3288 204.329 56.1617 204.273 56.0502 204.217C55.8831 204.161 55.6603 204.105 55.4931 204.049C55.3817 204.049 55.326 203.994 55.2146 203.938C55.0474 203.882 54.8803 203.826 54.7132 203.77C54.3232 203.658 53.9332 203.49 53.5433 203.323C53.209 203.211 52.9305 203.099 52.6519 202.987C52.4848 202.987 52.3733 202.876 52.2062 202.82C52.1505 202.82 52.0948 202.82 52.0391 202.764C51.9834 202.764 51.9277 202.764 51.8162 202.708C51.7605 202.708 51.6491 202.652 51.5934 202.596C51.482 202.596 51.3149 202.484 51.2034 202.428H51.0363C50.9249 202.317 50.8135 202.317 50.7578 202.261C50.5906 202.205 50.4235 202.149 50.3121 202.093C49.9778 201.981 49.6992 201.869 49.4207 201.758C49.1979 201.702 49.0307 201.59 48.8079 201.534H48.585C48.3065 201.366 48.0279 201.255 47.7494 201.143C47.4708 201.031 47.1923 200.975 46.858 200.863H46.6909C46.4681 200.751 46.2452 200.64 46.0224 200.584C46.0224 200.584 45.9109 200.584 45.8552 200.584H45.7995L45.6881 200.528C45.521 200.472 45.3539 200.416 45.131 200.36C44.8525 200.248 44.5739 200.137 44.2396 200.025H44.1282C43.9054 199.913 43.6268 199.801 43.3483 199.689C42.8469 199.522 42.2341 199.298 41.6213 199.074H41.4541C41.4541 199.019 41.287 198.963 41.287 198.963H41.1199C41.0084 198.851 40.8413 198.795 40.7299 198.739H40.6185C40.3399 198.627 40.0614 198.515 39.8385 198.404H39.6714C39.4486 198.236 39.2257 198.18 39.0029 198.068H38.8357C38.8357 198.012 38.8357 198.012 38.8357 198.012C38.6129 197.956 38.3901 197.845 38.1672 197.789L37.8887 197.677C37.6658 197.621 37.4987 197.509 37.2759 197.453C37.2201 197.453 37.1644 197.453 37.053 197.397C36.8302 197.286 36.6073 197.23 36.4402 197.174C36.3288 197.174 36.2174 197.118 36.1059 197.062C35.9388 197.006 35.716 196.95 35.5488 196.894C35.3817 196.838 35.2146 196.783 35.1032 196.727H34.9917C34.936 196.671 34.8246 196.615 34.7689 196.615C34.7689 196.615 34.7132 196.615 34.6575 196.615C34.5461 196.615 34.4903 196.559 34.3789 196.503C34.3789 196.503 34.3232 196.503 34.2675 196.503H34.2118H34.1004L33.9889 196.391C33.8775 196.391 33.7661 196.28 33.6547 196.28C33.6547 196.28 33.6547 196.28 33.599 196.224C33.599 196.224 33.599 196.224 33.599 196.168V196.112C33.599 196.112 33.599 196.224 33.5433 196.28C33.5433 196.28 33.5433 196.28 33.5433 196.224C33.5433 196.224 33.5433 196.335 33.4876 196.335C33.4318 196.447 33.3204 196.615 33.2647 196.727C33.209 196.894 33.1533 197.006 33.0976 197.174C33.0419 197.342 32.9305 197.453 32.8747 197.621C32.819 197.789 32.7633 197.956 32.7076 198.068C32.7076 198.18 32.6519 198.236 32.5962 198.348C32.5962 198.46 32.5962 198.627 32.5962 198.739C32.5962 198.739 32.5962 198.739 32.5962 198.683C32.5962 198.683 32.5962 198.683 32.5962 198.739C32.5962 198.739 32.5962 198.795 32.5962 198.851C32.5962 198.907 32.5962 198.963 32.5962 199.019C32.5962 199.074 32.5962 199.13 32.6519 199.186C32.6519 199.186 32.7076 199.298 32.7633 199.354C32.7633 199.354 32.8747 199.41 32.9304 199.466C32.9304 199.466 32.9862 199.522 33.0419 199.578C33.0419 199.578 33.0976 199.578 33.1533 199.578C33.3204 199.633 33.4876 199.689 33.6547 199.745L33.8218 199.689Z" fill="#F6C08F"/>
<path d="M59.4483 207.012C59.2812 206.956 59.1141 206.9 59.0026 206.844C58.7241 206.733 58.5013 206.677 58.2227 206.565C57.9999 206.453 57.777 206.397 57.4985 206.285C57.2199 206.174 56.9971 206.062 56.7185 205.95C56.3843 205.838 56.1057 205.726 55.7715 205.615C55.4372 205.503 55.1586 205.391 54.8244 205.279C54.5458 205.167 54.323 205.112 54.0444 205C54.2673 205.112 54.4901 205.167 54.7129 205.279C55.3258 205.503 55.9386 205.782 56.5514 206.006C57.1642 206.23 57.777 206.453 58.3341 206.677C58.6127 206.788 58.8912 206.9 59.2255 207.012C59.504 207.124 59.7826 207.236 60.0611 207.292C59.9497 207.292 59.8383 207.18 59.7269 207.124C59.6154 207.124 59.5597 207.068 59.4483 207.012ZM42.2896 200.696C42.1781 200.696 42.011 200.584 41.8996 200.528C41.7324 200.472 41.5653 200.416 41.4539 200.36C41.2868 200.304 41.1196 200.248 40.9525 200.192C40.9525 200.192 40.8411 200.192 40.7854 200.192H40.8968C41.2311 200.36 41.5096 200.472 41.8439 200.584C42.1224 200.696 42.401 200.807 42.6795 200.863C42.5124 200.807 42.401 200.751 42.2338 200.696H42.2896ZM34.323 197.956C34.0444 197.845 33.7659 197.677 33.4316 197.565C33.2645 197.509 33.1531 197.453 32.9859 197.398C32.9859 197.398 32.8745 197.397 32.8745 197.342C32.9302 197.23 32.9859 197.118 33.0416 196.95C33.0416 196.95 33.0416 196.95 33.0973 196.95C33.1531 196.95 33.2645 197.006 33.3202 197.062C33.4873 197.118 33.6545 197.23 33.8216 197.286C33.9887 197.397 34.1558 197.453 34.323 197.565C34.6572 197.677 34.9358 197.845 35.27 197.956C35.3815 197.956 35.4372 198.012 35.5486 198.068C35.7714 198.124 35.9943 198.18 36.2171 198.292C36.44 198.348 36.6628 198.404 36.8857 198.515C37.4985 198.683 38.1113 198.963 38.7241 199.13C39.0026 199.242 39.3369 199.354 39.6155 199.41C39.9497 199.522 40.2283 199.578 40.5625 199.689C40.8968 199.801 41.1753 199.913 41.5096 200.025C41.8439 200.137 42.1224 200.248 42.401 200.416C42.6795 200.528 42.9581 200.696 43.2366 200.807C43.4038 200.863 43.5709 200.919 43.738 201.031C43.738 201.031 43.738 201.031 43.7937 201.031C43.9051 201.031 44.0166 201.143 44.1837 201.199C44.518 201.366 44.8522 201.478 45.2422 201.59C45.5765 201.702 45.9107 201.869 46.245 201.981C46.5792 202.093 46.8578 202.205 47.1921 202.317C47.4706 202.428 47.8049 202.484 48.0834 202.596C48.4177 202.708 48.752 202.82 49.0305 202.931C49.3091 203.043 49.6433 203.155 49.9219 203.267C50.5347 203.49 51.1475 203.77 51.7603 203.994C52.3731 204.217 53.0416 204.441 53.6545 204.664C53.9887 204.776 54.2673 204.888 54.6015 205C54.8801 205.112 55.2143 205.223 55.4929 205.335C56.1057 205.559 56.7185 205.782 57.3313 206.006C57.6099 206.118 57.9442 206.23 58.2227 206.341C58.5013 206.453 58.8355 206.565 59.1141 206.677C59.4483 206.788 59.7269 206.9 60.0611 207.068C60.3397 207.18 60.6182 207.292 60.8968 207.459C60.9525 207.459 61.0639 207.515 61.1196 207.571C61.1753 207.571 61.2311 207.627 61.3425 207.683C61.3982 207.683 61.5096 207.739 61.5653 207.851C61.5653 207.851 61.5653 207.851 61.5653 207.906C61.5653 207.906 61.5653 207.906 61.5653 207.962C61.5653 208.018 61.5096 208.074 61.4539 208.074C61.3982 208.074 61.3425 208.074 61.2868 208.074C61.2868 208.074 61.1753 208.074 61.1196 208.074C61.0082 208.074 60.8411 207.962 60.7297 207.906C60.5625 207.906 60.4511 207.795 60.284 207.739C60.1168 207.739 60.0054 207.627 59.8383 207.627C59.5597 207.515 59.2812 207.459 59.0026 207.347C58.4455 207.124 57.8327 206.9 57.2199 206.733C56.6071 206.509 55.9943 206.285 55.4372 206.062C54.8244 205.838 54.2115 205.559 53.5987 205.335C52.9859 205.112 52.4288 204.832 51.816 204.664C51.2032 204.441 50.5904 204.217 49.9776 204.049C49.3648 203.826 48.7519 203.602 48.1391 203.379C47.5263 203.155 46.9135 202.931 46.3007 202.708C45.9664 202.596 45.6879 202.484 45.3536 202.372C45.0751 202.261 44.7965 202.149 44.518 202.037C44.1837 201.925 43.9052 201.814 43.5709 201.702C43.2366 201.59 42.9581 201.478 42.6238 201.366C42.3453 201.255 42.011 201.143 41.7324 201.031C41.4539 200.919 41.1196 200.807 40.8411 200.696C40.5068 200.584 40.2283 200.472 39.894 200.304C39.6155 200.192 39.2812 200.081 39.0026 199.913C38.5013 199.689 37.9999 199.466 37.4985 199.242C37.3313 199.242 37.1642 199.13 36.9971 199.074C36.6628 198.963 36.3843 198.851 36.05 198.739C35.8829 198.683 35.7157 198.627 35.5486 198.515C35.4372 198.515 35.3815 198.46 35.27 198.404C35.27 198.404 35.2701 198.404 35.2143 198.404C35.2143 198.404 35.1029 198.404 35.0472 198.404C34.7687 198.292 34.4344 198.236 34.1558 198.124L34.323 197.956Z" fill="#ED9E1F"/>
<path d="M58.3345 167.995C56.5517 170.007 53.8219 170.622 49.198 168.665C47.5824 167.995 45.9668 166.988 44.2398 166.821C39.393 166.374 36.5517 171.572 33.432 174.367C31.1478 176.379 25.9668 179.286 25.4654 173.976C24.8526 167.715 24.964 161.343 25.1311 155.082C23.4598 160.84 22.5684 166.821 22.5127 172.858C22.5127 173.864 22.5127 174.87 22.1228 175.765C21.0643 178.56 17.2203 176.883 14.9918 176.491C13.4877 176.212 11.8164 175.82 11.0921 174.535C10.7579 173.92 10.7022 173.193 10.6464 172.522C10.2008 166.374 10.2565 160.225 10.7579 154.076C11.0364 150.554 13.432 143.176 11.6492 139.933C11.2035 139.151 10.4793 138.424 10.5907 137.53C10.6464 136.859 11.2035 136.3 11.5935 135.741C13.042 133.673 12.7077 130.934 12.4292 128.474C11.2035 118.133 11.2035 107.68 12.4849 97.3945C13.8776 85.9911 26.0225 77.8858 37.4988 75.8734C43.4598 74.8114 50.3679 75.8734 54.2119 80.513C56.1618 82.9167 57.1088 85.9352 57.4431 89.0096C58.3902 97.2268 61.3428 105.22 62.6799 113.437C65.1868 128.754 63.2927 143.008 61.4542 158.101C60.9528 162.181 60.2286 165.926 58.3902 168.051L58.3345 167.995Z" fill="#FAE4C7"/>
<path d="M18.4459 30.2041C19.8944 28.583 22.2899 28.4153 24.4626 28.3594C32.0949 28.1917 39.7272 28.7507 47.3038 29.9805C49.0309 30.26 50.8693 30.5954 52.2621 31.7134C54.9362 33.7816 54.6576 37.0237 54.2119 39.9305C53.5991 44.2347 53.0977 48.5948 53.7105 52.899C53.8777 53.9611 54.1005 55.0791 53.8777 56.1411C53.7105 56.9237 53.3205 57.6504 53.3205 58.433C53.3205 59.3833 53.8219 60.2776 54.1562 61.172C55.6047 65.2526 52.0949 71.5692 57.1089 74.0287C58.5016 74.6995 60.2843 74.9231 61.2314 76.1529C61.7885 76.8796 61.9557 77.8299 62.0114 78.7243C62.2342 81.6869 61.7328 84.6495 60.6186 87.4445C57.9445 88.4506 54.8804 86.606 52.5963 84.8731C50.3122 83.1403 48.1395 81.0161 45.2983 80.4571C40.5629 79.5627 36.3846 83.308 32.8192 86.5501C29.4208 89.6245 25.7997 92.4753 21.9557 94.9908C18.1116 97.5621 13.7662 99.9099 9.08657 99.7422C7.74952 91.5251 6.41248 83.252 6.63532 74.8672C6.96958 59.9422 8.30663 41.3839 18.3902 30.1482L18.4459 30.2041Z" fill="#15376C"/>
<path d="M20.5628 28.8066C18.7243 30.4277 16.8859 31.9929 15.0474 33.6139C13.1533 35.2909 11.1477 37.0238 10.3678 39.2597C9.92209 40.4895 9.92209 41.8311 9.25356 42.949C8.75217 43.7875 7.91652 44.5142 7.3037 45.2968C4.96387 48.2594 5.57669 52.1164 4.46248 55.5263C3.51541 58.3212 1.45412 60.8926 1.00844 63.7434C0.785595 65.4763 1.17557 67.1532 1.56554 68.8302C2.73546 73.7493 3.90538 79.0597 3.34828 84.2583C3.18115 85.7116 2.90259 87.165 3.12543 88.6184C3.34827 90.0158 4.18393 91.4692 5.68811 91.9164C8.30649 92.699 9.25356 90.6866 11.3148 89.7922C13.3761 88.842 15.0474 89.4568 17.1087 90.463C18.8914 91.3015 21.1199 92.0282 22.6798 90.8543C23.9054 89.9599 24.4625 88.0594 25.9667 87.8917C26.5238 87.8917 27.0809 88.0594 27.638 88.283C28.8079 88.7301 30.2563 89.0097 31.1477 88.1712C31.5934 87.724 31.8162 87.1091 31.9834 86.4942C32.9862 82.9167 34.0447 79.3391 35.0474 75.7057C35.326 74.6996 35.5488 73.4698 34.8246 72.7431C34.1561 72.0723 33.0976 72.24 32.1505 72.2959C31.2034 72.3518 30.0892 72.1841 29.755 71.2897C29.5321 70.6189 29.9221 69.8923 29.9778 69.2215C30.2006 66.4265 27.0809 66.706 27.7494 63.6875C29.5878 54.9673 27.1366 46.3589 27.3037 37.6946C27.3037 35.5704 27.3594 33.3903 26.5238 31.5457C25.6881 29.701 22.9583 28.7507 20.5628 28.9184V28.8066Z" fill="#15376C"/>
<path d="M35.9386 29.1979C35.2143 29.3097 34.4901 29.4774 33.7102 29.5892C32.5402 29.8127 31.426 29.701 30.2561 29.9804C29.5876 30.0922 28.9191 30.2599 28.2505 30.2599C27.9163 30.2599 27.5263 30.2599 27.192 30.2599C24.6851 30.5394 22.1781 30.8189 19.6154 30.8748C19.7269 29.5892 19.6154 28.3035 19.2812 27.0737C18.9469 25.8439 18.3898 24.5024 18.7798 23.2726C19.0583 22.3223 19.8383 21.6515 20.5625 20.9807C21.3982 20.1982 22.1781 19.0802 22.2895 17.9063C22.3453 16.5088 21.5653 15.1673 21.5653 13.8257C21.5653 12.0928 21.5653 10.36 22.4567 8.7389C23.8494 6.33525 26.4121 5.77626 28.8076 4.93778C31.2589 4.0993 34.2673 4.4347 36.44 2.92543C37.6099 2.14285 39.1698 1.91925 40.5068 2.47824C41.4539 2.86953 42.2895 3.59621 42.6795 4.54649C43.6266 6.95014 42.2895 9.40969 44.6294 11.2543C46.1893 12.4841 48.7519 13.1549 49.3648 15.2791C49.8104 16.9001 48.8077 18.7448 49.3648 20.31C49.8661 21.8751 51.4817 22.7136 52.3174 24.0552C52.7074 24.6701 53.0416 25.5085 52.4288 26.0116C51.7046 26.6265 49.2533 26.6824 48.2506 26.8501C45.0751 27.5209 41.8439 28.1358 38.6684 28.6948C37.777 28.8625 36.9414 29.0302 36.05 29.1979H35.9386Z" fill="#F17776"/>
<path d="M25.1308 18.4654C24.3508 19.751 24.9079 21.5957 26.4678 22.546C28.0277 23.4963 29.9219 23.2727 30.7018 21.987C31.4817 20.7013 30.9246 18.8566 29.3648 17.9064C27.8049 16.9561 25.9107 17.1797 25.1308 18.4654Z" fill="#FAC4CA"/>
<path d="M28.0835 17.7388C28.6963 17.1239 29.532 17.1239 30.0891 16.3972C31.2033 14.9997 31.7047 13.4905 32.4289 11.9253C33.2089 10.1924 34.2674 8.68317 34.9359 6.83851C35.0473 6.61491 35.103 6.33541 35.3259 6.16771C35.6601 5.88822 36.1615 5.88823 36.5515 6.00002C38.6128 6.39132 40.0613 7.67698 40.9526 9.52164C42.4011 12.652 43.8496 15.8382 45.2423 18.9685C46.3565 21.3722 45.2423 24.2789 42.7353 25.3969L41.7883 25.8441C41.2312 26.0677 40.8969 26.6267 40.8969 27.1857V30.7632C40.8969 32.4401 41.064 34.0612 39.4484 35.1233C38.5014 35.7941 37.2757 35.9618 36.1058 36.0177C35.0473 36.0177 33.9888 35.9059 33.0417 35.5146C32.2618 35.1792 31.5933 34.6202 30.9805 33.9494C29.532 32.4402 30.0891 29.7011 30.0334 27.8006C30.0334 26.459 30.0334 25.1174 30.0334 23.7758C29.4206 22.4902 28.9749 21.4281 28.3621 20.1424C27.8607 19.0803 27.3593 18.5214 28.0835 17.7388Z" fill="#FAC4CA"/>
<path d="M41.6767 17.9624C41.5653 17.9624 41.5096 17.9065 41.5096 17.7947V16.4531C41.5096 16.2854 41.5096 16.1736 41.3982 16.0618C41.3982 16.0059 41.2867 15.95 41.1753 15.8941C40.0611 15.2793 38.9469 14.6644 37.8327 14.1054C37.777 14.1054 37.7213 13.9936 37.777 13.8818C37.777 13.8259 37.8884 13.77 37.9998 13.8259C39.1697 14.3849 40.2839 14.9998 41.3982 15.6146C41.5096 15.6705 41.621 15.7264 41.7324 15.8941C41.8438 16.0618 41.8438 16.2854 41.8438 16.4531V17.7947C41.8438 17.9065 41.8438 17.9624 41.7324 17.9624H41.6767Z" fill="#943729"/>
<path d="M40.841 18.4097C40.7295 18.4097 40.6738 18.2979 40.6738 18.242C40.6738 17.8507 40.6738 17.5153 40.6738 17.124C40.6738 17.0122 40.6738 16.9563 40.7852 16.9563C40.841 16.9563 40.9524 16.9563 40.9524 17.0681C40.9524 17.4594 40.9524 17.8507 40.9524 18.242C40.9524 18.2979 40.8967 18.4097 40.7852 18.4097H40.841Z" fill="#943729"/>
<path d="M34.4341 14.3289C34.7683 14.1053 35.1026 14.7761 35.2697 14.9997C35.4369 15.2792 35.3812 15.95 34.8798 15.6146C34.7683 15.5587 34.7126 15.4469 34.6569 15.391C34.5455 15.2792 33.9884 14.3848 34.3784 14.3289" fill="#943729"/>
<path d="M32.9301 14.3848H32.8744C32.8187 14.3848 32.763 14.2171 32.8744 14.1612C32.9858 13.9376 33.2086 13.6581 33.4315 13.4345C33.71 13.2109 33.9886 13.0991 34.3229 13.0991C34.4343 13.0991 34.49 13.155 34.49 13.2668C34.49 13.3786 34.4343 13.4345 34.3229 13.4345C34.1 13.4345 33.8772 13.5463 33.6543 13.714C33.4872 13.8817 33.3201 14.0494 33.1529 14.3289C33.1529 14.3289 33.0972 14.3848 33.0415 14.3848H32.9301Z" fill="#943729"/>
<path d="M39.6709 11.478C40.0052 11.2544 40.3394 11.9252 40.5066 12.1488C40.6737 12.4283 40.618 13.0991 40.1166 12.7637C40.0052 12.7078 39.9495 12.596 39.8937 12.5401C39.7823 12.4283 39.2252 11.5339 39.6152 11.4221" fill="#943729"/>
<path d="M38.5013 11.0868C38.5013 11.0868 38.4456 11.0868 38.3899 11.0868C38.3342 11.0309 38.3342 10.9191 38.3899 10.8632C38.6685 10.5837 38.8913 10.416 39.1142 10.3042C39.4484 10.1365 39.7827 10.0806 40.0612 10.1924C40.1727 10.1924 40.1727 10.3042 40.1727 10.3601C40.1727 10.4719 40.0612 10.4719 40.0055 10.4719C39.7827 10.4719 39.5041 10.4719 39.2813 10.5837C39.0585 10.6955 38.8913 10.8073 38.6128 11.0868C38.6128 11.0868 38.5571 11.0868 38.5013 11.0868Z" fill="#943729"/>
<path d="M42.2894 21.7075C42.2894 21.7075 42.178 21.7075 42.1223 21.7075C41.5095 21.6516 40.5624 21.2603 39.9496 20.9808L39.7267 20.869C39.671 20.869 39.6153 20.7572 39.671 20.6454C39.671 20.5895 39.7824 20.5336 39.8939 20.5336C40.7852 20.9249 41.9551 20.7572 42.6794 20.1423H42.7908C42.7908 20.1423 42.9022 20.1423 42.9022 20.2541C42.9579 20.4218 42.9022 20.6454 42.9022 20.8131C42.9022 20.869 42.9022 20.9249 42.9022 20.9808C42.9022 21.2603 42.7908 21.4839 42.6237 21.5957C42.5123 21.6516 42.3451 21.7075 42.2337 21.7075H42.2894ZM41.0638 21.0926C41.4538 21.2603 41.8437 21.3721 42.1223 21.3721C42.2337 21.3721 42.3451 21.3721 42.4565 21.3721C42.568 21.3162 42.6237 21.2044 42.568 21.0367C42.568 20.9808 42.568 20.9249 42.568 20.8131C42.568 20.7572 42.568 20.6454 42.568 20.5895C42.1223 20.869 41.5652 21.0926 41.0081 21.0926H41.0638Z" fill="#943729"/>
<path d="M42.4008 22.3783C42.4008 22.3783 42.3451 22.3783 42.2893 22.3783C42.2336 22.3224 42.2336 22.2106 42.2893 22.1547C42.4565 21.987 42.6793 21.8752 42.9579 21.8752C43.0693 21.8752 43.125 21.9311 43.125 22.0429C43.125 22.1547 43.0693 22.2106 42.9579 22.2106C42.7907 22.2106 42.6236 22.2665 42.5122 22.4342C42.5122 22.4342 42.4565 22.4342 42.4008 22.4342V22.3783Z" fill="#943729"/>
<path d="M27.6934 20.3101C26.9691 20.3101 26.2449 20.0865 25.6878 19.6393C25.6321 19.6393 25.6321 19.4716 25.6878 19.4157C25.6878 19.3598 25.8549 19.3598 25.9106 19.4157C26.7463 20.0306 27.9719 20.1983 28.919 19.7511C28.9747 19.7511 29.0861 19.7511 29.1418 19.807C29.1418 19.8629 29.1418 19.9747 29.0861 20.0306C28.6404 20.1983 28.1947 20.3101 27.7491 20.3101H27.6934Z" fill="#943729"/>
<path d="M38.5011 27.018C38.4454 27.018 38.3897 27.018 38.334 26.9062C38.334 26.8503 38.334 26.7385 38.4454 26.6826L39.2254 26.4031C39.2811 26.4031 39.3925 26.4031 39.4482 26.5149C39.4482 26.5708 39.4482 26.6826 39.3368 26.7385L38.5568 27.018H38.5011Z" fill="#943729"/>
<path d="M28.8077 17.5151L28.6963 17.2356C30.5347 16.3971 32.0389 14.6643 32.986 12.3165C33.8216 10.2483 34.0445 8.01231 34.2673 5.72046H34.6016C34.3787 8.06821 34.1002 10.3601 33.2645 12.4283C32.3175 14.832 30.7576 16.6207 28.8077 17.5151Z" fill="#F17776"/>
<path d="M54.4345 25.6204H54.1003C54.1003 24.8378 54.1003 23.9993 53.7103 23.3845C53.3761 22.9373 52.8747 22.6019 52.3733 22.3224C51.7605 21.9311 51.0919 21.5398 50.8134 20.869C50.5348 20.1982 50.6462 19.4715 50.8134 18.7449C50.8691 18.3536 50.9805 17.9064 50.9805 17.5151C50.9805 15.7263 49.1421 14.3289 47.4151 13.9376C47.1922 13.9376 46.9694 13.8258 46.7465 13.8258C46.078 13.714 45.3538 13.5463 44.741 13.155C43.7382 12.4842 43.1811 11.1426 43.2925 9.57745C43.2925 8.79487 43.5153 7.95638 43.7382 7.1738C43.8496 6.67071 43.961 6.22353 44.0724 5.72044C44.2396 4.65836 44.2953 3.14909 43.4596 2.08702C42.4568 0.801344 40.507 0.63364 39.1142 1.13673C37.5543 1.69572 36.3287 2.9255 35.2702 4.04347L35.0474 3.81987C36.1059 2.646 37.3872 1.41623 39.0028 0.801342C40.4513 0.298253 42.5683 0.354153 43.6825 1.80752C44.5738 2.9814 44.5181 4.54656 44.351 5.66454C44.2396 6.16762 44.1281 6.67071 44.0167 7.1738C43.8496 7.95638 43.6267 8.73897 43.6267 9.52155C43.5153 10.9749 44.0167 12.2606 44.9638 12.8196C45.5209 13.2109 46.1894 13.3227 46.858 13.4345C47.0808 13.4345 47.3036 13.5463 47.5265 13.5463C49.4206 13.9935 51.3148 15.4468 51.3705 17.4033C51.3705 17.8505 51.3148 18.2418 51.2034 18.689C51.0919 19.3597 50.9805 20.0305 51.2034 20.5895C51.4819 21.2044 52.039 21.5398 52.6518 21.8752C53.2089 22.2106 53.7103 22.546 54.1003 23.0491C54.546 23.7199 54.6017 24.6142 54.546 25.4527L54.4345 25.6204Z" fill="#F17776"/>
<path d="M20.6741 28.9183L20.3955 28.8065C20.6184 28.0239 20.3955 27.1296 19.4485 26.0116L19.3371 25.8439C18.7242 25.0613 18 24.1669 18 23.049C18 21.931 18.78 21.1484 19.5042 20.3658C19.9499 19.9186 20.3955 19.4155 20.6741 18.8565C21.3426 17.6268 21.1755 16.1175 21.0084 14.6641C21.0084 14.4405 21.0084 14.2169 20.9526 13.9933C20.7855 12.3723 20.9526 10.304 22.4568 9.29785L22.624 9.57735C21.2312 10.5276 21.1198 12.4841 21.2869 13.9933C21.2869 14.2169 21.2869 14.4405 21.3426 14.6641C21.5097 16.1734 21.6769 17.6827 20.9526 19.0242C20.6184 19.5832 20.1727 20.0863 19.727 20.5894C19.0028 21.372 18.3343 22.0987 18.3343 23.1049C18.3343 24.0551 18.9471 24.8936 19.6156 25.6762L19.727 25.8439C20.3398 26.6265 21.1198 27.7445 20.7298 28.9183H20.6741Z" fill="#F17776"/>
<path d="M28.3062 24.5584C28.1948 24.5584 28.1391 24.5584 28.0277 24.5584C27.192 24.3907 26.5792 23.5522 26.7463 22.7137C26.9135 21.8753 27.7491 21.2604 28.5848 21.4281C29.4204 21.5958 30.0332 22.4343 29.8661 23.2727C29.699 24.0553 29.0862 24.5584 28.3062 24.5584ZM28.3062 21.7076C28.0277 21.7076 27.8048 21.7635 27.582 21.9312C27.3034 22.0989 27.1363 22.4343 27.0806 22.7696C26.9692 23.4404 27.4149 24.1112 28.0834 24.2789C28.7519 24.3907 29.4204 23.9435 29.5876 23.2727C29.699 22.6019 29.2533 21.9312 28.5848 21.7635C28.5291 21.7635 28.4176 21.7635 28.3619 21.7635L28.3062 21.7076Z" fill="#ED941F"/>
<path d="M152.095 175.765H96.3848L98.5018 110.307H149.978L152.095 175.765Z" fill="#EB7E6B"/>
<path d="M127.193 123.332C118.836 123.332 112.04 116.512 112.04 108.127C112.04 99.7423 118.836 92.9226 127.193 92.9226C135.549 92.9226 142.346 99.7423 142.346 108.127C142.346 116.512 135.549 123.332 127.193 123.332ZM127.193 94.8232C119.895 94.8232 113.934 100.804 113.934 108.127C113.934 115.45 119.895 121.431 127.193 121.431C134.491 121.431 140.452 115.45 140.452 108.127C140.452 100.804 134.491 94.8232 127.193 94.8232Z" fill="#EB7E6B"/>
<path d="M121.845 123.611C113.488 123.611 106.691 116.791 106.691 108.407C106.691 100.022 113.488 93.2021 121.845 93.2021C130.201 93.2021 136.998 100.022 136.998 108.407C136.998 116.791 130.201 123.611 121.845 123.611ZM121.845 95.1027C114.547 95.1027 108.586 101.084 108.586 108.407C108.586 115.729 114.547 121.711 121.845 121.711C129.143 121.711 135.104 115.729 135.104 108.407C135.104 101.084 129.143 95.1027 121.845 95.1027Z" fill="#EB7E6B"/>
<path d="M98.5016 110.475C98.3902 110.475 98.3345 110.419 98.3345 110.307C98.3345 110.195 98.3902 110.139 98.5016 110.139H140.061C140.173 110.139 140.229 110.139 140.229 110.251C140.229 110.363 140.173 110.419 140.061 110.419H98.5016V110.475Z" fill="#943729"/>
<path d="M149.978 110.475H141.176C141.064 110.475 141.009 110.363 141.009 110.251C141.009 110.139 141.064 110.083 141.176 110.083H149.978C150.09 110.083 150.145 110.195 150.145 110.307C150.145 110.419 150.09 110.475 149.978 110.475Z" fill="#943729"/>
<path d="M102.457 128.81C102.457 128.81 102.401 128.81 102.346 128.81C102.29 128.81 102.234 128.642 102.346 128.586L112.763 113.885C112.763 113.829 112.931 113.773 112.986 113.885C113.042 113.885 113.098 114.052 112.986 114.108L102.568 128.81C102.568 128.81 102.513 128.865 102.457 128.865V128.81Z" fill="#943729"/>
<path d="M101.566 134.4C101.566 134.4 101.51 134.4 101.454 134.4C101.399 134.4 101.343 134.232 101.454 134.176L113.042 117.462C113.042 117.406 113.209 117.35 113.265 117.462C113.321 117.462 113.376 117.63 113.265 117.686L101.677 134.4C101.677 134.4 101.622 134.455 101.566 134.455V134.4Z" fill="#943729"/>
<path d="M175.66 178.504H97.3874C96.0503 178.504 94.8247 177.665 94.379 176.324L75.6046 122.996C75.2704 121.99 75.3818 120.928 75.9946 120.033C76.6074 119.195 77.5545 118.692 78.613 118.692H190.814C191.816 118.692 192.763 119.139 193.376 119.978C193.989 120.816 194.156 121.822 193.878 122.828L178.78 176.156C178.39 177.553 177.109 178.504 175.66 178.504ZM78.613 120.592C78.1673 120.592 77.7773 120.816 77.4988 121.151C77.2202 121.487 77.1645 121.99 77.3316 122.381L96.106 175.709C96.2732 176.268 96.8302 176.603 97.3874 176.603H175.66C176.273 176.603 176.775 176.212 176.942 175.597L192.039 122.269C192.151 121.878 192.039 121.431 191.816 121.096C191.538 120.76 191.148 120.537 190.758 120.537H78.5573L78.613 120.592Z" fill="#F6C08F"/>
<path d="M95.1591 177.274C94.7692 177.274 94.4349 177.05 94.2678 176.659L63.6828 88.2829C63.5157 87.7798 63.7942 87.2767 64.2399 87.109C64.7413 86.9413 65.2427 87.2208 65.4098 87.668L95.9948 176.044C96.1619 176.547 95.8834 177.05 95.4377 177.218C95.3263 177.218 95.2148 177.218 95.1034 177.218L95.1591 177.274Z" fill="#F6C08F"/>
<path d="M115.493 178.224C115.048 178.224 114.658 177.889 114.602 177.497L103.07 120.257C102.958 119.754 103.293 119.251 103.794 119.139C104.295 119.027 104.797 119.363 104.908 119.866L116.44 177.106C116.552 177.609 116.217 178.112 115.716 178.224C115.66 178.224 115.605 178.224 115.549 178.224H115.493Z" fill="#F6C08F"/>
<path d="M135.27 178.224C134.769 178.224 134.323 177.777 134.323 177.274V119.81C134.323 119.307 134.769 118.86 135.27 118.86C135.772 118.86 136.217 119.307 136.217 119.81V177.274C136.217 177.777 135.772 178.224 135.27 178.224Z" fill="#F6C08F"/>
<path d="M155.103 178.615C155.048 178.615 154.992 178.615 154.88 178.615C154.379 178.504 154.045 178.001 154.156 177.497L167.025 119.363C167.137 118.86 167.638 118.524 168.14 118.636C168.641 118.748 168.975 119.251 168.864 119.754L155.995 177.889C155.883 178.336 155.493 178.615 155.103 178.615Z" fill="#F6C08F"/>
<path d="M188.195 139.989H82.4012C81.8998 139.989 81.4541 139.542 81.4541 139.039C81.4541 138.536 81.8998 138.089 82.4012 138.089H188.195C188.696 138.089 189.142 138.536 189.142 139.039C189.142 139.542 188.696 139.989 188.195 139.989Z" fill="#F6C08F"/>
<path d="M182.123 161.622H90.2567C89.7553 161.622 89.3096 161.175 89.3096 160.672C89.3096 160.169 89.7553 159.722 90.2567 159.722H182.123C182.624 159.722 183.07 160.169 183.07 160.672C183.07 161.175 182.624 161.622 182.123 161.622Z" fill="#F6C08F"/>
<path d="M163.348 200.248H85.8554C79.4487 200.248 74.2119 194.994 74.2119 188.565C74.2119 182.137 79.4487 176.883 85.8554 176.883H180.73C181.231 176.883 181.677 177.33 181.677 177.833C181.677 178.336 181.231 178.783 180.73 178.783H85.8554C80.4515 178.783 76.1061 183.199 76.1061 188.565C76.1061 193.932 80.5072 198.348 85.8554 198.348H163.348C163.85 198.348 164.295 198.795 164.295 199.298C164.295 199.801 163.85 200.248 163.348 200.248Z" fill="#F6C08F"/>
<path d="M116.226 208.429C118.681 204.076 117.154 198.551 112.816 196.088C108.477 193.625 102.971 195.157 100.516 199.51C98.062 203.863 99.5891 209.388 103.927 211.851C108.266 214.314 113.772 212.782 116.226 208.429Z" fill="#FAE4C7"/>
<path d="M108.418 214.111C102.903 214.111 98.4463 209.639 98.4463 204.105C98.4463 198.571 102.903 194.099 108.418 194.099C113.934 194.099 118.391 198.571 118.391 204.105C118.391 209.639 113.934 214.111 108.418 214.111ZM108.418 196C103.962 196 100.34 199.633 100.34 204.105C100.34 208.577 103.962 212.211 108.418 212.211C112.875 212.211 116.496 208.577 116.496 204.105C116.496 199.633 112.875 196 108.418 196Z" fill="#F6C08F"/>
<path d="M154.461 212.356C159.066 210.442 161.253 205.145 159.345 200.524C157.438 195.903 152.158 193.709 147.553 195.623C142.948 197.537 140.762 202.834 142.669 207.455C144.577 212.075 149.856 214.27 154.461 212.356Z" fill="#FAE4C7"/>
<path d="M150.981 213.999C145.466 213.999 141.009 209.527 141.009 203.993C141.009 198.459 145.466 193.988 150.981 193.988C156.496 193.988 160.953 198.459 160.953 203.993C160.953 209.527 156.496 213.999 150.981 213.999ZM150.981 195.832C146.524 195.832 142.903 199.466 142.903 203.938C142.903 208.409 146.524 212.043 150.981 212.043C155.438 212.043 159.059 208.409 159.059 203.938C159.059 199.466 155.438 195.832 150.981 195.832Z" fill="#F6C08F"/>
<path d="M64.6297 88.6183H48.6966C48.1952 88.6183 47.7495 88.1711 47.7495 87.6681C47.7495 87.165 48.1952 86.7178 48.6966 86.7178H64.6297C65.1311 86.7178 65.5768 87.165 65.5768 87.6681C65.5768 88.1711 65.1311 88.6183 64.6297 88.6183Z" fill="#F6C08F"/>
<path d="M34.8804 77.4943C33.4876 78.78 32.8191 80.6247 32.4291 82.4134C32.2063 83.5314 31.4263 85.8791 32.3177 86.8853C32.4291 86.9971 32.5405 87.053 32.7077 87.1089C35.2146 88.1151 38.0001 87.6679 40.6742 87.4443C43.0141 87.2766 45.3539 87.4443 47.7494 87.3884C50.145 87.2766 52.5405 87.053 54.9361 87.053C56.6074 87.053 58.223 86.7176 59.8386 86.9971C60.8414 87.1648 61.7884 87.5002 62.7355 87.8356C64.7411 88.5064 66.6909 89.1772 68.6965 89.7921C69.0865 89.9039 70.2007 90.407 70.6464 90.0716C71.1478 89.6244 69.9779 88.9536 69.6436 88.7859C69.4207 88.6741 69.1979 88.5623 68.9751 88.4505C68.8079 88.3387 68.6408 88.2828 68.5294 88.1151C68.5294 88.1151 69.3093 88.2828 69.365 88.2828C69.755 88.3387 70.145 88.4505 70.535 88.5064C71.3149 88.6182 72.0948 88.73 72.9305 88.73C73.4319 88.73 73.7661 88.2269 73.3762 87.8356C73.1533 87.612 72.8748 87.5561 72.5962 87.4443C71.6492 87.1648 70.6464 86.8294 69.755 86.3822C69.6436 86.3822 69.5322 86.2704 69.5322 86.1586C69.5322 85.991 71.0363 86.3263 71.1478 86.3822C71.8163 86.494 72.4291 86.6058 73.0976 86.6058C73.599 86.6058 74.1561 86.6058 74.6018 86.3822C74.7689 86.2704 74.8804 86.0469 74.7132 85.8792C74.6018 85.7674 74.4904 85.7115 74.3233 85.6556C73.989 85.5438 73.599 85.5438 73.2648 85.432C72.8748 85.3202 72.5405 85.2084 72.1506 85.0966C70.535 84.5376 68.9751 84.0345 67.3595 83.4755C67.248 83.4755 67.1923 83.1401 67.3595 83.196C69.6993 83.8668 72.1505 84.5935 74.5461 84.2581C74.7689 84.2581 74.9918 84.2022 75.2146 84.0345C75.3818 83.9227 75.4932 83.6432 75.4375 83.4196C75.326 83.2519 75.1032 83.1401 74.9361 83.0842C74.1561 82.9165 73.3762 82.5811 72.6519 82.3016C71.872 82.0221 71.092 81.7985 70.3121 81.5191C69.5322 81.2396 68.7522 81.016 67.9723 80.7365C67.3038 80.5129 66.4681 80.3452 65.911 79.898C65.911 79.898 65.8553 79.8421 65.7996 79.7862C65.7439 79.4508 66.6909 79.6744 66.8581 79.6744C67.4152 79.6744 67.9166 79.6744 68.4737 79.6744C68.6965 79.6744 68.8636 79.6744 69.0865 79.5067C69.2536 79.3949 69.365 79.1713 69.3093 79.0036C69.2536 78.8359 69.0308 78.7241 68.8079 78.6682C68.028 78.4446 67.248 78.1651 66.4681 77.9415C65.6324 77.7179 64.7968 77.4384 63.9611 77.4384C63.6826 77.4384 63.404 77.4384 63.0698 77.4384C62.9026 77.4384 61.9556 77.2707 55.8831 77.662C52.262 77.8856 36.3845 76.2087 34.9361 77.4943H34.8804Z" fill="#FBC9CC"/>
<path d="M74.3794 85.5997C73.0423 85.3761 71.7053 85.0966 70.3682 84.7612C70.3125 84.7612 70.2568 84.6494 70.2568 84.5935C70.2568 84.5376 70.3682 84.4817 70.424 84.4817C71.7053 84.8171 73.0423 85.0966 74.3794 85.3202C74.4908 85.3202 74.5465 85.432 74.4908 85.4879C74.4908 85.5438 74.4351 85.5997 74.3237 85.5997H74.3794Z" fill="#943729"/>
<path d="M69.4209 84.4818L67.1368 83.8669C67.0811 83.8669 67.0254 83.7551 67.0254 83.6992C67.0254 83.6433 67.1368 83.5874 67.1925 83.5874L69.4766 84.2023C69.5324 84.2023 69.5881 84.3141 69.5881 84.37C69.5881 84.4259 69.5324 84.4818 69.4209 84.4818Z" fill="#943729"/>
<path d="M59.337 53.4022C59.1141 53.6258 59.0584 54.0171 59.0027 54.3525C58.7241 56.4766 58.3342 57.9859 61.064 58.3772C65.1865 60.2218 69.4205 61.8988 73.5988 63.5758C76.2172 64.6378 78.4456 65.085 81.064 64.0788C83.3481 63.1845 85.2422 61.4516 86.0779 59.2156C86.4122 58.3772 86.4679 57.2592 85.7436 56.6443C85.4651 56.4207 85.0751 56.253 84.7409 56.1412C83.4038 55.694 82.011 55.2468 80.674 54.7437C79.5041 54.3525 78.557 53.6817 77.3871 53.1786C74.4344 51.8929 71.3704 50.8308 68.362 49.7129C67.3035 49.3216 62.8467 46.8061 62.2339 48.1477C61.7882 49.098 61.3982 50.16 61.1197 51.1662C60.9525 51.837 60.7297 52.6196 60.1169 52.955C59.9498 53.0668 59.7269 53.0668 59.5598 53.1786C59.5041 53.1786 59.4484 53.2345 59.3927 53.2904L59.337 53.4022Z" fill="#FBC9CC"/>
<path d="M68.1391 49.7687C68.1391 49.7687 68.1391 49.7687 68.0834 49.7687L66.6349 49.1539C66.5792 49.1539 66.5235 49.0421 66.5792 48.9303C66.6349 48.8185 66.6906 48.8185 66.8021 48.8744L68.2505 49.4892C68.3062 49.4892 68.362 49.6011 68.3063 49.7128C68.3063 49.7687 68.2505 49.8246 68.1391 49.8246V49.7687Z" fill="#943729"/>
<path d="M78.7798 54.0171C75.4929 52.7873 72.206 51.5016 68.9748 50.1042C68.9191 50.1042 68.8634 49.9924 68.9191 49.8806C68.9191 49.8247 69.0305 49.7688 69.1419 49.8247C72.3731 51.2221 75.66 52.5078 78.9469 53.7376C79.0026 53.7376 79.0584 53.8494 79.0584 53.9612C79.0584 54.0171 79.0027 54.073 78.8912 54.073L78.7798 54.0171Z" fill="#943729"/>
<path d="M76.9971 55.1909C77.2756 57.0915 78.4455 58.6567 79.6712 59.9982C80.4511 60.8367 81.9553 62.7932 83.2923 62.6255C83.4595 62.6255 83.5709 62.5137 83.6823 62.4578C85.9107 60.9485 87.1363 58.3772 88.4734 56.0294C89.6433 54.017 91.1475 52.1724 92.4288 50.16C93.6545 48.1477 94.8244 45.9676 96.2171 44.0112C97.1642 42.6696 97.777 41.0485 98.9469 39.8746C99.3369 39.4834 101.342 38.2536 101.287 37.8064C101.287 37.6387 101.175 37.471 101.064 37.3592C100.061 36.0735 98.3341 35.6822 97.1085 34.6202C96.9971 34.5643 96.9414 34.4525 96.8857 34.3407C96.8299 34.173 96.8857 34.0053 96.8857 33.8376C96.9414 32.9991 96.7742 32.2724 96.5514 31.4898C96.3286 30.7072 96.3286 30.7072 96.8299 30.0365C97.1642 29.5893 97.4428 29.1421 97.7213 28.6949C97.8327 28.5272 97.9442 28.3036 97.9442 28.1359C97.9442 27.9123 97.8327 27.6887 97.6656 27.6328C97.4428 27.6328 97.2756 27.7446 97.1085 27.8564C96.44 28.3595 95.8272 28.8626 95.2143 29.3657C94.5458 29.9247 93.8773 30.4837 93.3759 31.1544C93.2088 31.378 93.0416 31.6575 92.8745 31.8811C92.7631 31.9929 92.0946 32.7196 89.0305 37.9741C87.1921 41.1044 76.8299 53.2904 77.1085 55.2468L76.9971 55.1909Z" fill="#FBC9CC"/>
<path d="M67.4707 44.1788C69.922 45.6321 72.2061 47.365 74.5459 49.0978C75.9387 50.1599 77.4986 51.3897 77.8885 53.0667C78.3899 55.2467 76.9415 57.4827 77.3314 59.6627C77.7771 62.1782 80.4512 64.5818 79.1142 66.7619C78.3899 67.9357 76.6629 68.1593 75.3258 67.824C73.9331 67.4886 72.7632 66.6501 71.3704 66.2588C68.1392 65.2526 64.6852 66.5383 61.3426 67.0414C58.7799 67.4326 56.1615 67.3209 53.6545 66.7619C51.5933 66.3147 49.4763 65.4203 48.3064 63.6315C47.6935 62.6813 47.415 61.5074 47.1921 60.3894C45.7437 52.9549 46.0779 45.2967 47.0807 37.8063C47.3593 35.7939 47.805 33.6698 49.3649 32.3841C53.0417 29.4215 54.713 35.6821 56.6629 37.4709C59.8384 40.3217 63.8495 41.9987 67.4707 44.1788Z" fill="#15376C"/>
<path d="M27.8049 177.106C26.3008 177.106 25.2423 176.212 25.0194 174.758C24.7409 172.802 24.7966 170.957 24.7966 169.057C24.7966 168.106 24.7966 167.156 24.7966 166.206L24.5737 154.523H24.908L25.1308 166.206C25.1308 167.156 25.1308 168.106 25.1308 169.057C25.1308 171.013 25.0751 172.802 25.3537 174.758C25.5765 176.1 26.635 176.938 28.0835 176.827C28.8634 176.771 29.6991 176.435 30.5904 175.82L30.7576 176.1C29.8105 176.715 28.9191 177.05 28.0835 177.162C27.9721 177.162 27.9164 177.162 27.8049 177.162V177.106Z" fill="#F6C08F"/>
<path d="M32.0388 175.429L31.8159 175.206C33.4315 173.864 34.88 172.355 36.217 170.79L36.4399 171.013C35.1028 172.634 33.5986 174.088 31.9831 175.485L32.0388 175.429Z" fill="#F6C08F"/>
<path d="M22.6795 166.206H22.3452C22.7909 163.69 23.348 161.231 24.0722 158.883L24.3508 158.995C23.6266 161.343 23.0694 163.802 22.6238 166.262L22.6795 166.206Z" fill="#F6C08F"/>
<path d="M12.596 145.02H12.2617C12.3732 143.567 12.4289 141.722 11.7046 140.325C11.5375 140.045 11.3704 139.766 11.2032 139.486C10.7576 138.815 10.2562 138.089 10.3119 137.306C10.3119 136.468 10.869 135.797 11.3704 135.182C11.7046 134.791 11.9832 134.399 12.206 133.952C12.596 133.058 12.4846 131.996 12.4289 131.101L12.206 128.642H12.5403L12.7631 131.045C12.8745 131.94 12.986 133.114 12.5403 134.064C12.3174 134.567 11.9832 134.958 11.6489 135.35C11.1475 135.965 10.7018 136.579 10.6461 137.306C10.6461 138.033 11.0361 138.648 11.4818 139.319C11.6489 139.598 11.8718 139.878 12.0389 140.157C12.8745 141.666 12.7631 143.511 12.6517 145.02H12.596Z" fill="#F6C08F"/>
<path d="M12.0944 126.238L11.2588 119.698H11.5373L12.4287 126.182L12.0944 126.238Z" fill="#F6C08F"/>
<path d="M20.1729 202.484C19.7272 202.484 19.2815 202.261 19.003 201.925C18.7244 201.59 18.613 201.199 18.6687 200.807C18.6687 200.695 18.7801 200.695 18.8358 200.695C18.9473 200.695 18.9473 200.807 18.9473 200.863C18.8916 201.143 18.9473 201.422 19.1701 201.702C19.3929 201.981 19.7829 202.149 20.1172 202.149C20.7857 202.149 21.3985 201.59 21.6214 200.863C21.6214 200.807 21.7328 200.751 21.7885 200.751C21.8442 200.751 21.8999 200.863 21.8999 200.919C21.6771 201.758 20.8971 202.428 20.1172 202.428L20.1729 202.484Z" fill="#943729"/>
<path d="M39.6156 191.249C39.5599 191.249 39.5042 191.249 39.4485 191.137C39.2257 190.522 39.1143 189.907 39.1143 189.236C39.1143 189.124 39.17 189.068 39.2814 189.068C39.3371 189.068 39.4485 189.124 39.4485 189.236C39.4485 189.851 39.6156 190.466 39.7828 191.025C39.7828 191.081 39.7828 191.193 39.6714 191.249H39.6156Z" fill="#943729"/>
<path d="M37.7213 77.1033C37.6099 77.1033 37.5542 77.0474 37.5542 76.9356C37.5542 76.4325 37.5542 75.7617 37.2757 75.2027C37.0528 74.7555 36.4957 74.3083 35.9386 74.3642C35.8272 74.3642 35.7715 74.3643 35.7715 74.2525C35.7715 74.1407 35.7715 74.0847 35.8829 74.0847C36.4957 73.973 37.22 74.4202 37.5542 75.0909C37.8885 75.7058 37.8885 76.4325 37.8328 76.9915C37.8328 77.0474 37.7771 77.1592 37.6656 77.1592L37.7213 77.1033Z" fill="#39699F"/>
<path d="M35.2146 76.1531C35.2146 76.1531 35.1589 76.1531 35.1032 76.1531C35.0475 76.1531 34.9918 75.9854 35.1032 75.9295C35.6046 75.2028 35.716 74.1407 35.2704 73.3022C34.8804 72.4638 33.989 71.9048 33.0419 71.9048C32.7634 71.9048 32.4848 71.9048 32.2063 71.9048C31.3706 71.9607 30.3678 72.0166 29.9779 71.234C29.755 70.8427 29.8107 70.4514 29.8665 70.0042V69.8365C29.9779 68.6067 29.6436 67.377 28.9751 66.3708C28.9194 66.259 28.808 66.1472 28.7522 66.0354C28.5294 65.7559 28.3066 65.4205 28.1394 65.0851C27.8609 64.4143 27.9166 63.6317 27.9723 62.961C28.4737 56.7562 28.418 50.4955 27.8052 44.3467C27.8052 44.2349 27.8052 44.179 27.9723 44.179C28.0837 44.179 28.1394 44.179 28.1394 44.3467C28.7523 50.5514 28.808 56.8121 28.3066 63.0169C28.3066 63.6876 28.1951 64.4143 28.4737 65.0292C28.5851 65.3646 28.808 65.5882 29.0308 65.9236C29.1422 66.0354 29.1979 66.1472 29.3094 66.259C30.0336 67.3211 30.4236 68.6626 30.3121 69.8924V70.0601C30.3121 70.4514 30.2007 70.7868 30.3679 71.1222C30.7021 71.7371 31.4821 71.6812 32.3177 71.6253C32.5963 71.6253 32.9305 71.6253 33.1534 71.6253C34.1562 71.6253 35.1589 72.296 35.6046 73.1904C36.0503 74.0848 35.9946 75.3146 35.3818 76.1531C35.3818 76.1531 35.3261 76.209 35.2704 76.209L35.2146 76.1531Z" fill="#39699F"/>
<path d="M28.6408 52.7315C28.6408 52.7315 28.6408 52.7315 28.5851 52.7315C28.5294 52.7315 28.4737 52.6197 28.5294 52.5079C29.0308 51.334 29.3094 50.0483 29.3094 48.7627C29.3094 48.6509 29.3651 48.595 29.4765 48.595C29.5879 48.595 29.6436 48.6509 29.6436 48.7627C29.6436 50.1042 29.3651 51.4458 28.808 52.6197C28.808 52.6756 28.7523 52.7315 28.6408 52.7315Z" fill="#39699F"/>
<path d="M6.07849 91.5811C5.68852 91.5811 5.29854 91.5252 4.96428 91.3016C3.23726 90.4631 3.18155 88.1154 3.29297 86.4384C3.29297 86.3266 3.34868 86.2707 3.46011 86.2707C3.57153 86.2707 3.62724 86.3266 3.62724 86.4384C3.51582 88.0036 3.57152 90.2395 5.0757 90.9662C6.46846 91.637 8.08406 90.6308 8.97542 89.96C9.14255 89.8482 9.30969 89.6805 9.47682 89.5687C10.4796 88.7302 11.5381 87.8918 12.8751 87.8359C14.3236 87.7241 15.6049 88.6184 16.7749 89.4569C17.7776 90.1836 18.7804 90.9103 19.8946 91.078C21.1203 91.2457 22.4016 90.7985 23.1816 89.7923C23.3487 89.5687 23.5158 89.3451 23.6829 89.1215C24.0729 88.5066 24.4629 87.8918 25.1871 87.6682C25.9114 87.4446 26.6356 87.7241 27.3598 88.0595C27.6941 88.2272 28.0841 88.3949 28.474 88.4508C29.1426 88.6185 29.8668 88.4507 30.4796 88.0036C31.0924 87.6123 31.5381 86.9415 31.6495 86.3266C31.6495 86.2148 31.7609 86.1589 31.8166 86.2148C31.9281 86.2148 31.9838 86.3266 31.9281 86.3825C31.7609 87.1092 31.3153 87.8359 30.591 88.283C29.9225 88.7302 29.0868 88.8979 28.3069 88.7302C27.9169 88.6185 27.527 88.4507 27.137 88.3389C26.4685 88.0595 25.7999 87.78 25.1871 87.9477C24.5743 88.1154 24.24 88.6743 23.8501 89.2892C23.6829 89.5128 23.5158 89.7923 23.3487 90.0159C22.513 91.078 21.1203 91.5811 19.7832 91.4134C18.5576 91.2457 17.4991 90.4631 16.4963 89.7364C15.3264 88.8979 14.1565 88.0595 12.8194 88.1713C11.5938 88.2272 10.591 89.0656 9.64394 89.8482C9.47681 89.96 9.30969 90.1277 9.14255 90.2395C8.47403 90.7985 7.2484 91.5252 6.07849 91.5252V91.5811Z" fill="#39699F"/>
<path d="M3.51564 84.7614C3.40422 84.7614 3.34851 84.7056 3.34851 84.5938C3.45993 80.2337 2.95854 75.8735 1.73291 71.6811C1.73291 71.6252 1.73291 71.5134 1.84433 71.5134C1.90004 71.5134 2.01146 71.5134 2.01146 71.6252C3.23709 75.8735 3.73849 80.2337 3.62707 84.5938C3.62707 84.7056 3.57135 84.7614 3.45993 84.7614H3.51564Z" fill="#39699F"/>
<path d="M54.435 67.9359C54.3236 67.9359 54.2679 67.8241 54.3236 67.7682C54.5465 66.1471 54.3236 64.4701 54.2122 62.8491C54.0451 61.2839 53.9337 59.6628 54.1008 58.0977C54.1565 57.4269 54.3236 56.7561 54.435 56.0853C54.6579 54.7996 54.9364 53.514 54.7693 52.2283C54.5465 50.6631 53.7108 49.2098 52.8752 47.7564C51.9281 46.0794 50.9253 44.4025 50.9253 42.446C50.9253 42.3342 50.981 42.2783 51.0924 42.2783C51.2038 42.2783 51.2596 42.3342 51.2596 42.446C51.2596 44.2907 52.1509 45.9117 53.1537 47.5887C53.9894 49.0421 54.825 50.4954 55.0479 52.1724C55.215 53.514 54.9921 54.8556 54.7136 56.1412C54.6022 56.812 54.4908 57.4828 54.3793 58.0977C54.2122 59.6628 54.3793 61.2839 54.4907 62.7932C54.6579 64.4143 54.825 66.1471 54.6022 67.7682C54.6022 67.8241 54.5465 67.88 54.435 67.88V67.9359Z" fill="#39699F"/>
<path d="M56.4961 73.5817C56.4961 73.5817 56.4404 73.5817 56.3847 73.5817C55.2705 72.7432 54.4905 71.5134 54.1562 70.1159C54.1562 70.0041 54.1563 69.9482 54.2677 69.9482C54.3791 69.9482 54.4348 69.9482 54.4348 70.06C54.7134 71.3457 55.4933 72.5196 56.5518 73.3581C56.6075 73.3581 56.6075 73.5258 56.5518 73.5817C56.5518 73.5817 56.4961 73.6376 56.4404 73.6376L56.4961 73.5817Z" fill="#39699F"/>
<path d="M72.875 56.3088C72.7635 56.3088 72.7078 56.197 72.7636 56.1411C73.0978 54.2406 73.7663 52.3959 74.7134 50.7189C74.7134 50.663 74.8248 50.6071 74.9363 50.663C74.992 50.663 75.0477 50.7748 74.992 50.8866C74.1006 52.5636 73.4321 54.3524 73.0978 56.2529C73.0978 56.3088 73.0421 56.3647 72.9307 56.3647L72.875 56.3088Z" fill="#39699F"/>
<path d="M74.7691 54.6878C74.7134 54.6878 74.6577 54.576 74.6577 54.4642C74.9363 53.7934 75.1034 53.0667 75.2148 52.34C75.2148 52.2282 75.3262 52.1723 75.3819 52.2282C75.4934 52.2282 75.5491 52.34 75.4934 52.3959C75.3819 53.1226 75.2148 53.9052 74.9363 54.576C74.9363 54.6319 74.8805 54.6878 74.7691 54.6878Z" fill="#39699F"/>
</svg>
