<?xml version="1.0" encoding="utf-8"?>
<!-- Generator: Adobe Illustrator 28.0.0, SVG Export Plug-In . SVG Version: 6.00 Build 0)  -->
<svg version="1.1" id="Layer_1" xmlns="http://www.w3.org/2000/svg" xmlns:xlink="http://www.w3.org/1999/xlink" x="0px" y="0px"
	 viewBox="0 0 50 50" style="enable-background:new 0 0 50 50;" xml:space="preserve">
<style type="text/css">
	.st0{fill:#BD081C;}
</style>
<g>
	<path class="st0" d="M15.8,48.2C5.3,44.3-2.8,32,0.9,18.5C4.6,4.6,19.1-3.2,32.6,1.2c13.6,4.4,20.8,19.1,15.8,32.4
		C43.4,47.2,29,52.5,17.8,48.9c0.9-2,2-3.9,2.7-6c0.7-2.1,1.2-4.2,1.7-6.3c0.4,0.4,0.8,0.9,1.3,1.2c1.8,1.3,3.8,1.6,6,1.3
		c3.8-0.5,6.6-2.5,8.6-5.6c2.5-3.9,3.4-8.3,2.5-12.8c-1-4.9-4-8.3-8.6-10.1c-5.9-2.3-11.6-1.8-16.9,1.7c-3.5,2.3-5.4,5.8-6,10
		c-0.5,3.5,0.2,6.7,2.3,9.6c0.7,1,1.5,1.7,2.6,2.3c0.5,0.3,0.8,0.2,0.9-0.4c0.2-0.9,0.4-1.7,0.6-2.6c0-0.3,0-0.6-0.2-0.8
		c-3.2-4.4-2-10.8,2.2-14.1c3.7-3,9.7-3.3,13.5-0.6c2.4,1.7,3.7,4,4.1,6.9c0.3,3.2-0.1,6.3-1.8,9.1c-1,1.8-2.5,3.1-4.6,3.6
		c-0.9,0.2-1.7,0.2-2.6,0c-1.9-0.6-2.9-2.3-2.4-4.2c0.5-2.1,1.2-4.2,1.7-6.4c0.2-0.9,0.3-2,0.2-2.9c-0.3-2.3-2.5-3.3-4.6-2.3
		c-1.7,0.8-2.5,2.3-2.8,4.1c-0.3,1.7-0.2,3.4,0.4,5c0.1,0.3,0.1,0.6,0.1,0.9c-0.9,3.9-1.9,7.8-2.8,11.8c-0.5,2.2-0.4,4.4-0.2,6.7
		c0,0.1,0,0.3,0,0.4C15.8,48.1,15.8,48.1,15.8,48.2z"/>
</g>
</svg>
